<?xml version="1.0" encoding="utf-8"?>
<!-- Generator: Adobe Illustrator 19.0.0, SVG Export Plug-In . SVG Version: 6.00 Build 0)  -->
<svg version="1.1" id="Calque_1" xmlns="http://www.w3.org/2000/svg" xmlns:xlink="http://www.w3.org/1999/xlink" x="0px" y="0px"
	 viewBox="0 0 200 100" style="enable-background:new 0 0 200 100;" xml:space="preserve">
<style type="text/css">
	.st0{fill:#F6F6F6;stroke:#05A650;stroke-width:3;stroke-miterlimit:10;}
	.st1{fill:#A2442A;}
	.st2{fill:#FABF84;}
	.st3{fill:#FFFFFF;}
	.st4{fill:#E8AA63;}
	.st5{fill:#515151;}
	.st6{fill:#59BFC7;}
	.st7{fill:#4EAE3E;}
	.st8{fill:#5E5E5E;}
	.st9{fill:none;stroke:#05A650;stroke-miterlimit:10;}
	.st10{fill:#3C3C3B;}
</style>
<rect id="XMLID_14_" class="st0" width="200" height="100"/>
<path id="XMLID_37_" class="st1" d="M56.2,66.7c0,0,0-19.4,0-25.1c0-14.8-8.3-26.8-18.4-26.8c-10.2,0-18.4,12-18.4,26.8
	c0,5.7,0,25.1,0,25.1H56.2z"/>
<g id="XMLID_32_">
	<path id="XMLID_36_" class="st2" d="M42,52.2h-3.9h-0.8h-3.9c0,0,1.3,9.3-4.9,17l8.8,14.1h0.8l8.8-14.1C40.7,61.5,42,52.2,42,52.2z
		"/>
	<polygon id="XMLID_35_" class="st3" points="28.7,69.3 37.3,83.3 38.1,83.3 46.8,69.3 	"/>
	<g id="XMLID_33_">
		<path id="XMLID_34_" class="st4" d="M42,52.2h-3.9h-0.8h-3.9c0,0,0.2,1.2,0.1,3.1c1.5,0.9,2.9,1.5,4.1,1.5c1.2,0,2.7-0.6,4.2-1.6
			C41.8,53.3,42,52.2,42,52.2z"/>
	</g>
</g>
<path id="XMLID_31_" class="st2" d="M51.8,34.6c-0.4-1.1-1.1-0.5-1.7,0.2c0.2-8.3-4.2-12.5-4.2-12.5l-8.2-2.7l-8.2,2.7
	c0,0-4.4,4.2-4.3,12.4c-0.6-0.7-1.2-1.2-1.6-0.1c-0.7,1.9,1,4.6,0.7,7.2c-0.2,1.8,1.2,1.6,2.1,1.1c0.3,1.4,0.8,3,1.7,4.9
	c1.7,4,6.6,7.6,9.6,7.6c3,0,7.9-3.7,9.6-7.6c0.8-1.8,1.3-3.3,1.7-4.9c0.9,0.5,2.4,0.7,2.1-1.1C50.8,39.1,52.6,36.5,51.8,34.6z"/>
<g id="XMLID_28_">
	<path id="XMLID_30_" class="st1" d="M46.8,21.4l-3.5,0.9c0.5,0.9,2.8,3.7,4.1,7.2c1.2,3.2,1.4,7,1.3,10.2l0.6-1.1
		c0.9-1.6,1.5-3.3,1.6-5.1C51.4,28.7,51.6,19.5,46.8,21.4z"/>
	<path id="XMLID_29_" class="st1" d="M26.1,38.6l0.6,1.1c-0.1-3.2,0.1-7,1.3-10.2c1.3-3.5,3.6-6.3,4.1-7.2l-3.5-0.9
		c-4.8-1.9-4.6,7.3-4.1,12.2C24.6,35.3,25.2,37,26.1,38.6z"/>
</g>
<path id="XMLID_27_" class="st1" d="M37.7,19.6c-12.2-2.7-13.3,10.2-13.3,10.2c10.2,2.5,12.7-3,13.3-6.9c0.6,3.8,3.1,9.3,13.3,6.9
	C51,29.8,49.9,16.9,37.7,19.6z"/>
<g id="XMLID_18_">
	<path id="XMLID_26_" class="st5" d="M25.8,34.9c-0.1-3.3,0.3-7.5,2-10.7c1.9-3.7,5.3-5.6,9.9-5.6s8,1.9,9.9,5.6
		c1.7,3.3,2.1,7.4,2,10.7h1.6c0.1-3.7-0.3-8.3-2.3-12.1c-2.2-4.3-6-6.5-11.2-6.5c-5.2,0-9,2.2-11.2,6.5c-2,3.8-2.4,8.4-2.3,12.1
		H25.8z"/>
	<g id="XMLID_23_">
		<path id="XMLID_25_" class="st5" d="M25,33.8c-0.3-0.2-0.7-0.2-1-0.2c-1.8,0-3.2,2-3.2,4.5c0,2.5,1.4,4.5,3.2,4.5
			c0.4,0,0.7-0.1,1-0.2V33.8z"/>
		<path id="XMLID_24_" class="st6" d="M26.2,32.7c-0.3-0.1-0.6-0.2-0.9-0.2h0c-1.1,0-1.9,0.9-1.9,1.9v7.7c0,1.1,0.9,1.9,1.9,1.9h0
			c0.3,0,0.6-0.1,0.9-0.2V32.7z"/>
	</g>
	<path id="XMLID_22_" class="st5" d="M50.9,42.3l-0.9,0c0,0.3-0.1,7.4-8.9,8.2c-0.2-0.2-0.4-0.4-0.8-0.4H37c-0.5,0-0.9,0.4-0.9,0.9
		v0c0,0.5,0.4,0.9,0.9,0.9h3.3c0.4,0,0.7-0.3,0.9-0.6C50.7,50.4,50.9,42.3,50.9,42.3z"/>
	<g id="XMLID_19_">
		<path id="XMLID_21_" class="st5" d="M50.4,33.8c0.3-0.2,0.7-0.2,1-0.2c1.8,0,3.2,2,3.2,4.5c0,2.5-1.4,4.5-3.2,4.5
			c-0.4,0-0.7-0.1-1-0.2V33.8z"/>
		<path id="XMLID_20_" class="st6" d="M49.3,32.7c0.3-0.1,0.6-0.2,0.9-0.2h0c1.1,0,1.9,0.9,1.9,1.9v7.7c0,1.1-0.9,1.9-1.9,1.9h0
			c-0.3,0-0.6-0.1-0.9-0.2V32.7z"/>
	</g>
</g>
<path id="XMLID_17_" class="st7" d="M59.5,68.4c-1.1-2.4-3.5-4.2-6.4-4.9l-10.2-2.3l-5.1,19.1l-5.1-19.1l-10.2,2.3
	c-2.9,0.7-5.3,2.5-6.4,4.9c0,0-3.4,11.8-1.3,12.8c3.8,1.8,7.9,2.9,12.1,3.4c7.3,0.8,14.6,0.8,21.9,0c4.2-0.5,8.3-1.6,12.1-3.4
	C62.8,80.2,59.5,68.4,59.5,68.4z"/>
<rect id="XMLID_16_" x="43.4" y="73.6" class="st3" width="8.6" height="1.9"/>
<rect id="XMLID_15_" x="-18.7" y="-49" class="st8" width="246.3" height="28"/>
<rect id="XMLID_39_" x="-52" y="-29.2" class="st8" width="33.3" height="146.3"/>
<rect id="XMLID_40_" x="-20.4" y="125.3" class="st8" width="231.7" height="25.7"/>
<rect id="XMLID_41_" x="241.2" y="-11.2" class="st8" width="26" height="149.3"/>
<text id="XMLID_43_" transform="matrix(1 0 0 1 182.7815 138.6666)"><tspan x="0" y="0" class="st10" style="font-family:'Arial-BoldMT'; font-size:15px;">Besoin d&apos;aide ?</tspan><tspan x="0" y="36" class="st10" style="font-family:'Arial-BoldMT'; font-size:16px;">05 84 57 65 30</tspan></text>
<g id="XMLID_38_">
	<rect id="XMLID_44_" x="268" y="-6" class="st9" width="76.4" height="100"/>
	<line id="XMLID_108_" class="st9" x1="268" y1="77.3" x2="344.4" y2="77.3"/>
	<line id="XMLID_109_" class="st9" x1="268" y1="60.7" x2="344.4" y2="60.7"/>
	<line id="XMLID_110_" class="st9" x1="268" y1="44" x2="344.4" y2="44"/>
	<line id="XMLID_111_" class="st9" x1="268" y1="27.3" x2="344.4" y2="27.3"/>
	<line id="XMLID_112_" class="st9" x1="268" y1="10.7" x2="344.4" y2="10.7"/>
	<line id="XMLID_113_" class="st9" x1="331.7" y1="-6" x2="331.7" y2="94"/>
	<line id="XMLID_114_" class="st9" x1="319" y1="-6" x2="319" y2="94"/>
	<line id="XMLID_115_" class="st9" x1="306.2" y1="-6" x2="306.2" y2="94"/>
	<line id="XMLID_116_" class="st9" x1="293.5" y1="-6" x2="293.5" y2="94"/>
	<line id="XMLID_117_" class="st9" x1="280.7" y1="-6" x2="280.7" y2="94"/>
</g>
<rect id="XMLID_205_" x="320" y="-106.5" class="st0" width="200" height="100"/>
<g id="XMLID_182_">
	<path id="XMLID_204_" class="st1" d="M376.2-39.8c0,0,0-19.4,0-25.1c0-14.8-8.3-26.8-18.4-26.8c-10.2,0-18.4,12-18.4,26.8
		c0,5.7,0,25.1,0,25.1H376.2z"/>
	<g id="XMLID_199_">
		<path id="XMLID_203_" class="st2" d="M362-54.3h-3.9h-0.8h-3.9c0,0,1.3,9.3-4.9,17l8.8,14.1h0.8l8.8-14.1
			C360.7-45,362-54.3,362-54.3z"/>
		<polygon id="XMLID_202_" class="st3" points="348.7,-37.2 357.3,-23.2 358.1,-23.2 366.8,-37.2 		"/>
		<g id="XMLID_200_">
			<path id="XMLID_201_" class="st4" d="M362-54.3h-3.9h-0.8h-3.9c0,0,0.2,1.2,0.1,3.1c1.5,0.9,2.9,1.5,4.1,1.5
				c1.2,0,2.7-0.6,4.2-1.6C361.8-53.2,362-54.3,362-54.3z"/>
		</g>
	</g>
	<path id="XMLID_198_" class="st2" d="M371.8-71.9c-0.4-1.1-1.1-0.5-1.7,0.2c0.2-8.3-4.2-12.5-4.2-12.5l-8.2-2.7l-8.2,2.7
		c0,0-4.4,4.2-4.3,12.4c-0.6-0.7-1.2-1.2-1.6-0.1c-0.7,1.9,1,4.6,0.7,7.2c-0.2,1.8,1.2,1.6,2.1,1.1c0.3,1.4,0.8,3,1.7,4.9
		c1.7,4,6.6,7.6,9.6,7.6c3,0,7.9-3.7,9.6-7.6c0.8-1.8,1.3-3.3,1.7-4.9c0.9,0.5,2.4,0.7,2.1-1.1C370.8-67.4,372.6-70,371.8-71.9z"/>
	<g id="XMLID_195_">
		<path id="XMLID_197_" class="st1" d="M366.8-85.1l-3.5,0.9c0.5,0.9,2.8,3.7,4.1,7.2c1.2,3.2,1.4,7,1.3,10.2l0.6-1.1
			c0.9-1.6,1.5-3.3,1.6-5.1C371.4-77.8,371.6-87,366.8-85.1z"/>
		<path id="XMLID_196_" class="st1" d="M346.1-67.9l0.6,1.1c-0.1-3.2,0.1-7,1.3-10.2c1.3-3.5,3.6-6.3,4.1-7.2l-3.5-0.9
			c-4.8-1.9-4.6,7.3-4.1,12.2C344.6-71.2,345.2-69.5,346.1-67.9z"/>
	</g>
	<path id="XMLID_194_" class="st1" d="M357.7-86.9c-12.2-2.7-13.3,10.2-13.3,10.2c10.2,2.5,12.7-3,13.3-6.9
		c0.6,3.8,3.1,9.3,13.3,6.9C371-76.7,369.9-89.6,357.7-86.9z"/>
	<g id="XMLID_185_">
		<path id="XMLID_193_" class="st5" d="M345.8-71.6c-0.1-3.3,0.3-7.5,2-10.7c1.9-3.7,5.3-5.6,9.9-5.6s8,1.9,9.9,5.6
			c1.7,3.3,2.1,7.4,2,10.7h1.6c0.1-3.7-0.3-8.3-2.3-12.1c-2.2-4.3-6-6.5-11.2-6.5c-5.2,0-9,2.2-11.2,6.5c-2,3.8-2.4,8.4-2.3,12.1
			H345.8z"/>
		<g id="XMLID_190_">
			<path id="XMLID_192_" class="st5" d="M345-72.7c-0.3-0.2-0.7-0.2-1-0.2c-1.8,0-3.2,2-3.2,4.5c0,2.5,1.4,4.5,3.2,4.5
				c0.4,0,0.7-0.1,1-0.2V-72.7z"/>
			<path id="XMLID_191_" class="st6" d="M346.2-73.8c-0.3-0.1-0.6-0.2-0.9-0.2h0c-1.1,0-1.9,0.9-1.9,1.9v7.7c0,1.1,0.9,1.9,1.9,1.9
				h0c0.3,0,0.6-0.1,0.9-0.2V-73.8z"/>
		</g>
		<path id="XMLID_189_" class="st5" d="M370.9-64.2l-0.9,0c0,0.3-0.1,7.4-8.9,8.2c-0.2-0.2-0.4-0.4-0.8-0.4H357
			c-0.5,0-0.9,0.4-0.9,0.9v0c0,0.5,0.4,0.9,0.9,0.9h3.3c0.4,0,0.7-0.3,0.9-0.6C370.7-56.1,370.9-64.2,370.9-64.2z"/>
		<g id="XMLID_186_">
			<path id="XMLID_188_" class="st5" d="M370.4-72.7c0.3-0.2,0.7-0.2,1-0.2c1.8,0,3.2,2,3.2,4.5c0,2.5-1.4,4.5-3.2,4.5
				c-0.4,0-0.7-0.1-1-0.2V-72.7z"/>
			<path id="XMLID_187_" class="st6" d="M369.3-73.8c0.3-0.1,0.6-0.2,0.9-0.2h0c1.1,0,1.9,0.9,1.9,1.9v7.7c0,1.1-0.9,1.9-1.9,1.9h0
				c-0.3,0-0.6-0.1-0.9-0.2V-73.8z"/>
		</g>
	</g>
	<path id="XMLID_184_" class="st7" d="M379.5-38.1c-1.1-2.4-3.5-4.2-6.4-4.9l-10.2-2.3l-5.1,19.1l-5.1-19.1L342.4-43
		c-2.9,0.7-5.3,2.5-6.4,4.9c0,0-3.4,11.8-1.3,12.8c3.8,1.8,7.9,2.9,12.1,3.4c7.3,0.8,14.6,0.8,21.9,0c4.2-0.5,8.3-1.6,12.1-3.4
		C382.8-26.3,379.5-38.1,379.5-38.1z"/>
	<rect id="XMLID_183_" x="363.4" y="-32.9" class="st3" width="8.6" height="1.9"/>
</g>
<path id="XMLID_142_" class="st10" d="M399.9-44.9c1.1,0,2,0.4,2.7,1.2c0.8,1,1.2,2.6,1.2,4.8c0,2.2-0.4,3.9-1.2,4.8
	c-0.6,0.8-1.5,1.2-2.7,1.2c-1.2,0-2.1-0.4-2.8-1.3s-1.1-2.5-1.1-4.7c0-2.2,0.4-3.8,1.2-4.8C397.8-44.5,398.7-44.9,399.9-44.9z
	 M399.9-43c-0.3,0-0.5,0.1-0.7,0.3c-0.2,0.2-0.4,0.5-0.5,0.9c-0.2,0.6-0.2,1.6-0.2,3c0,1.4,0.1,2.3,0.2,2.9c0.1,0.5,0.3,0.9,0.5,1
	c0.2,0.2,0.5,0.3,0.7,0.3c0.3,0,0.5-0.1,0.7-0.3c0.2-0.2,0.4-0.5,0.5-0.9c0.2-0.6,0.2-1.6,0.2-3c0-1.4-0.1-2.3-0.2-2.9
	c-0.1-0.5-0.3-0.9-0.5-1S400.1-43,399.9-43z"/>
<path id="XMLID_140_" class="st10" d="M405.3-36.1l2.3-0.2c0.1,0.5,0.3,0.9,0.6,1.2c0.3,0.3,0.7,0.4,1.1,0.4c0.5,0,0.9-0.2,1.2-0.6
	c0.3-0.4,0.5-1,0.5-1.7c0-0.7-0.2-1.3-0.5-1.6c-0.3-0.4-0.8-0.5-1.3-0.5c-0.7,0-1.2,0.3-1.8,0.9l-1.8-0.3l1.2-6.2h6v2.1h-4.3l-0.4,2
	c0.5-0.3,1-0.4,1.6-0.4c1,0,1.9,0.4,2.6,1.1c0.7,0.7,1.1,1.7,1.1,2.9c0,1-0.3,1.8-0.9,2.6c-0.8,1-1.8,1.6-3.2,1.6
	c-1.1,0-2-0.3-2.7-0.9C405.8-34.3,405.4-35.1,405.3-36.1z"/>
<path id="XMLID_136_" class="st10" d="M421-39.4c-0.6-0.2-1-0.6-1.3-1c-0.3-0.4-0.4-0.9-0.4-1.4c0-0.9,0.3-1.6,0.9-2.2
	s1.5-0.9,2.6-0.9c1.1,0,2,0.3,2.6,0.9s0.9,1.3,0.9,2.2c0,0.6-0.1,1-0.4,1.5c-0.3,0.4-0.7,0.8-1.2,1c0.7,0.3,1.2,0.7,1.5,1.2
	s0.5,1.1,0.5,1.8c0,1.1-0.3,2-1,2.7c-0.7,0.7-1.6,1-2.8,1c-1.1,0-2-0.3-2.7-0.9c-0.8-0.7-1.3-1.6-1.3-2.8c0-0.6,0.2-1.2,0.5-1.8
	C419.8-38.7,420.3-39.1,421-39.4z M421.3-36.6c0,0.6,0.2,1.1,0.5,1.5c0.3,0.4,0.7,0.5,1.2,0.5c0.5,0,0.9-0.2,1.2-0.5
	c0.3-0.3,0.5-0.8,0.5-1.5c0-0.6-0.2-1-0.5-1.3c-0.3-0.3-0.7-0.5-1.2-0.5c-0.6,0-1,0.2-1.2,0.6C421.4-37.5,421.3-37.1,421.3-36.6z
	 M421.5-41.7c0,0.5,0.1,0.8,0.4,1.1c0.3,0.3,0.6,0.4,1,0.4c0.4,0,0.8-0.1,1-0.4c0.3-0.3,0.4-0.6,0.4-1.1c0-0.4-0.1-0.8-0.4-1
	c-0.3-0.3-0.6-0.4-1-0.4c-0.4,0-0.8,0.1-1,0.4C421.6-42.5,421.5-42.1,421.5-41.7z"/>
<path id="XMLID_133_" class="st10" d="M432.8-33v-2.4h-4.9v-2l5.2-7.5h1.9v7.5h1.5v2H435v2.4H432.8z M432.8-37.4v-4.1l-2.7,4.1
	H432.8z"/>
<path id="XMLID_131_" class="st10" d="M442.2-36.1l2.3-0.2c0.1,0.5,0.3,0.9,0.6,1.2c0.3,0.3,0.7,0.4,1.1,0.4c0.5,0,0.9-0.2,1.2-0.6
	c0.3-0.4,0.5-1,0.5-1.7c0-0.7-0.2-1.3-0.5-1.6c-0.3-0.4-0.8-0.5-1.3-0.5c-0.7,0-1.2,0.3-1.8,0.9l-1.8-0.3l1.2-6.2h6v2.1h-4.3l-0.4,2
	c0.5-0.3,1-0.4,1.6-0.4c1,0,1.9,0.4,2.6,1.1c0.7,0.7,1.1,1.7,1.1,2.9c0,1-0.3,1.8-0.9,2.6c-0.8,1-1.8,1.6-3.2,1.6
	c-1.1,0-2-0.3-2.7-0.9C442.7-34.3,442.3-35.1,442.2-36.1z"/>
<path id="XMLID_129_" class="st10" d="M451.3-42.6v-2.1h7.8v1.7c-0.6,0.6-1.3,1.5-2,2.7s-1.2,2.4-1.5,3.8c-0.3,1.3-0.5,2.5-0.5,3.6
	h-2.2c0-1.6,0.4-3.3,1-5s1.5-3.2,2.6-4.6H451.3z"/>
<path id="XMLID_126_" class="st10" d="M472.9-42l-2.2,0.2c-0.1-0.5-0.2-0.8-0.4-1s-0.5-0.3-0.9-0.3c-0.5,0-0.9,0.2-1.2,0.6
	s-0.5,1.3-0.6,2.7c0.6-0.7,1.3-1,2.1-1c1,0,1.8,0.4,2.4,1.1c0.7,0.7,1,1.7,1,2.8c0,1.2-0.4,2.2-1.1,2.9s-1.6,1.1-2.7,1.1
	c-1.2,0-2.2-0.5-3-1.4c-0.8-0.9-1.2-2.5-1.2-4.6c0-2.2,0.4-3.7,1.2-4.7s1.8-1.4,3.1-1.4c0.9,0,1.6,0.3,2.2,0.8
	C472.4-43.7,472.7-42.9,472.9-42z M467.7-37c0,0.7,0.2,1.3,0.5,1.7c0.3,0.4,0.7,0.6,1.2,0.6c0.4,0,0.8-0.2,1.1-0.5s0.4-0.9,0.4-1.6
	c0-0.8-0.2-1.3-0.5-1.7s-0.7-0.5-1.1-0.5c-0.4,0-0.8,0.2-1.1,0.5S467.7-37.7,467.7-37z"/>
<path id="XMLID_124_" class="st10" d="M474.4-36.1l2.3-0.2c0.1,0.5,0.3,0.9,0.6,1.2c0.3,0.3,0.7,0.4,1.1,0.4c0.5,0,0.9-0.2,1.2-0.6
	c0.3-0.4,0.5-1,0.5-1.7c0-0.7-0.2-1.3-0.5-1.6c-0.3-0.4-0.8-0.5-1.3-0.5c-0.7,0-1.2,0.3-1.8,0.9l-1.8-0.3l1.2-6.2h6v2.1h-4.3l-0.4,2
	c0.5-0.3,1-0.4,1.6-0.4c1,0,1.9,0.4,2.6,1.1c0.7,0.7,1.1,1.7,1.1,2.9c0,1-0.3,1.8-0.9,2.6c-0.8,1-1.8,1.6-3.2,1.6
	c-1.1,0-2-0.3-2.7-0.9C475-34.3,474.6-35.1,474.4-36.1z"/>
<path id="XMLID_122_" class="st10" d="M488.2-36.2l2.2-0.3c0.1,0.6,0.3,1,0.6,1.3c0.3,0.3,0.7,0.4,1.1,0.4c0.5,0,0.9-0.2,1.2-0.5
	c0.3-0.4,0.5-0.8,0.5-1.4c0-0.6-0.2-1-0.5-1.4s-0.7-0.5-1.1-0.5c-0.3,0-0.6,0.1-1,0.2l0.3-1.9c0.6,0,1.1-0.1,1.4-0.4
	c0.3-0.3,0.5-0.7,0.5-1.1c0-0.4-0.1-0.7-0.4-1s-0.6-0.4-0.9-0.4c-0.4,0-0.7,0.1-1,0.4c-0.3,0.3-0.4,0.7-0.5,1.2l-2.1-0.4
	c0.1-0.7,0.4-1.3,0.7-1.7s0.7-0.8,1.2-1c0.5-0.2,1.1-0.4,1.8-0.4c1.1,0,2,0.4,2.7,1.1c0.6,0.6,0.8,1.2,0.8,2c0,1-0.6,1.9-1.7,2.5
	c0.7,0.1,1.2,0.5,1.6,1c0.4,0.5,0.6,1.1,0.6,1.8c0,1-0.4,1.9-1.1,2.7c-0.8,0.7-1.7,1.1-2.8,1.1c-1.1,0-2-0.3-2.7-0.9
	C488.7-34.3,488.3-35.2,488.2-36.2z"/>
<path id="XMLID_119_" class="st10" d="M501.3-44.9c1.1,0,2,0.4,2.7,1.2c0.8,1,1.2,2.6,1.2,4.8c0,2.2-0.4,3.9-1.2,4.8
	c-0.6,0.8-1.5,1.2-2.7,1.2c-1.2,0-2.1-0.4-2.8-1.3c-0.7-0.9-1.1-2.5-1.1-4.7c0-2.2,0.4-3.8,1.2-4.8
	C499.3-44.5,500.2-44.9,501.3-44.9z M501.3-43c-0.3,0-0.5,0.1-0.7,0.3c-0.2,0.2-0.4,0.5-0.5,0.9c-0.2,0.6-0.2,1.6-0.2,3
	c0,1.4,0.1,2.3,0.2,2.9c0.1,0.5,0.3,0.9,0.5,1c0.2,0.2,0.5,0.3,0.7,0.3c0.3,0,0.5-0.1,0.7-0.3c0.2-0.2,0.4-0.5,0.5-0.9
	c0.2-0.6,0.2-1.6,0.2-3c0-1.4-0.1-2.3-0.2-2.9c-0.1-0.5-0.3-0.9-0.5-1C501.8-42.9,501.6-43,501.3-43z"/>
<rect id="XMLID_118_" x="268" y="-135.7" class="st8" width="33.3" height="146.3"/>
<g id="XMLID_45_">
	<g id="XMLID_557_">
		<path id="XMLID_598_" class="st10" d="M78.6-21.9H82c0.7,0,1.1,0,1.5,0.1c0.3,0.1,0.6,0.2,0.9,0.3c0.3,0.2,0.5,0.4,0.6,0.7
			c0.2,0.3,0.3,0.6,0.3,1c0,0.4-0.1,0.7-0.3,1.1c-0.2,0.3-0.5,0.6-0.9,0.7c0.5,0.1,0.9,0.4,1.2,0.8c0.3,0.4,0.4,0.8,0.4,1.3
			c0,0.4-0.1,0.7-0.3,1.1c-0.2,0.4-0.4,0.6-0.7,0.9c-0.3,0.2-0.7,0.3-1.1,0.4c-0.3,0-1,0-2,0.1h-2.8V-21.9z M80.3-20.5v1.9h1.1
			c0.7,0,1.1,0,1.2,0c0.3,0,0.5-0.1,0.7-0.3c0.2-0.2,0.2-0.4,0.2-0.6c0-0.3-0.1-0.5-0.2-0.6c-0.1-0.2-0.4-0.3-0.6-0.3
			c-0.2,0-0.6,0-1.4,0H80.3z M80.3-17.2v2.2h1.6c0.6,0,1,0,1.2-0.1c0.2,0,0.5-0.2,0.6-0.3c0.2-0.2,0.2-0.4,0.2-0.7
			c0-0.2-0.1-0.5-0.2-0.6c-0.1-0.2-0.3-0.3-0.5-0.4c-0.2-0.1-0.7-0.1-1.5-0.1H80.3z"/>
		<path id="XMLID_596_" class="st10" d="M88.5-13.6h-1.6v-6h1.5v0.9c0.3-0.4,0.5-0.7,0.7-0.8c0.2-0.1,0.4-0.2,0.7-0.2
			c0.4,0,0.7,0.1,1.1,0.3l-0.5,1.4c-0.3-0.2-0.5-0.3-0.7-0.3c-0.2,0-0.4,0.1-0.6,0.2c-0.2,0.1-0.3,0.3-0.4,0.7c-0.1,0.3-0.1,1-0.1,2
			V-13.6z"/>
		<path id="XMLID_593_" class="st10" d="M92.7-17.8l-1.4-0.3c0.2-0.6,0.4-1,0.8-1.3s1-0.4,1.8-0.4c0.7,0,1.2,0.1,1.6,0.3
			c0.3,0.2,0.6,0.4,0.7,0.6c0.1,0.3,0.2,0.7,0.2,1.4l0,1.9c0,0.5,0,0.9,0.1,1.2c0.1,0.3,0.1,0.5,0.3,0.8h-1.6c0-0.1-0.1-0.3-0.2-0.5
			c0-0.1,0-0.2-0.1-0.2c-0.3,0.3-0.6,0.5-0.9,0.6c-0.3,0.1-0.6,0.2-1,0.2c-0.6,0-1.1-0.2-1.5-0.5c-0.4-0.3-0.5-0.8-0.5-1.3
			c0-0.3,0.1-0.6,0.2-0.9c0.2-0.3,0.4-0.5,0.7-0.6c0.3-0.1,0.7-0.3,1.3-0.4c0.7-0.1,1.3-0.3,1.6-0.4v-0.2c0-0.3-0.1-0.5-0.2-0.7
			c-0.2-0.1-0.4-0.2-0.9-0.2c-0.3,0-0.5,0.1-0.7,0.2S92.8-18.1,92.7-17.8z M94.9-16.5c-0.2,0.1-0.5,0.1-1,0.2
			c-0.4,0.1-0.7,0.2-0.9,0.3c-0.2,0.1-0.3,0.3-0.3,0.6c0,0.2,0.1,0.4,0.2,0.6c0.2,0.2,0.4,0.2,0.6,0.2c0.3,0,0.6-0.1,0.8-0.3
			c0.2-0.1,0.3-0.3,0.4-0.5c0-0.1,0.1-0.4,0.1-0.8V-16.5z"/>
		<path id="XMLID_591_" class="st10" d="M102-13.6v-0.9c-0.2,0.3-0.5,0.6-0.9,0.8c-0.4,0.2-0.7,0.3-1.1,0.3c-0.4,0-0.8-0.1-1.1-0.3
			c-0.3-0.2-0.6-0.4-0.7-0.7C98-14.8,98-15.2,98-15.8v-3.8h1.6v2.8c0,0.8,0,1.4,0.1,1.6c0.1,0.2,0.2,0.3,0.3,0.5s0.4,0.2,0.6,0.2
			c0.3,0,0.5-0.1,0.7-0.2c0.2-0.1,0.4-0.3,0.4-0.6c0.1-0.2,0.1-0.8,0.1-1.6v-2.5h1.6v6H102z"/>
		<path id="XMLID_589_" class="st10" d="M110.4-17.8l-1.6,0.3c-0.1-0.3-0.2-0.6-0.4-0.7c-0.2-0.2-0.4-0.2-0.7-0.2
			c-0.4,0-0.7,0.1-1,0.4c-0.2,0.3-0.4,0.7-0.4,1.4c0,0.7,0.1,1.2,0.4,1.5c0.2,0.3,0.6,0.4,1,0.4c0.3,0,0.6-0.1,0.7-0.3
			c0.2-0.2,0.3-0.5,0.4-0.9l1.6,0.3c-0.2,0.7-0.5,1.3-0.9,1.6c-0.5,0.4-1.1,0.6-1.9,0.6c-0.9,0-1.6-0.3-2.1-0.8
			c-0.5-0.6-0.8-1.3-0.8-2.3c0-1,0.3-1.8,0.8-2.3s1.2-0.8,2.1-0.8c0.7,0,1.3,0.2,1.8,0.5C109.9-19,110.2-18.5,110.4-17.8z"/>
		<path id="XMLID_587_" class="st10" d="M113.2-21.9v3.1c0.5-0.6,1.1-0.9,1.8-0.9c0.4,0,0.7,0.1,1,0.2s0.5,0.3,0.7,0.5
			c0.1,0.2,0.3,0.4,0.3,0.7c0.1,0.3,0.1,0.7,0.1,1.2v3.5h-1.6v-3.2c0-0.6,0-1-0.1-1.2c-0.1-0.2-0.2-0.3-0.3-0.4
			c-0.2-0.1-0.3-0.2-0.6-0.2c-0.3,0-0.5,0.1-0.7,0.2c-0.2,0.1-0.4,0.3-0.5,0.6c-0.1,0.3-0.1,0.6-0.1,1.1v3h-1.6v-8.3H113.2z"/>
		<path id="XMLID_584_" class="st10" d="M122.2-15.5l1.6,0.3c-0.2,0.6-0.5,1-1,1.3c-0.4,0.3-1,0.5-1.7,0.5c-1,0-1.8-0.3-2.3-1
			c-0.4-0.5-0.6-1.2-0.6-2.1c0-1,0.3-1.8,0.8-2.3c0.5-0.6,1.2-0.8,2-0.8c0.9,0,1.6,0.3,2.1,0.9s0.8,1.5,0.7,2.7h-4
			c0,0.5,0.1,0.8,0.4,1.1c0.2,0.3,0.6,0.4,0.9,0.4c0.2,0,0.5-0.1,0.6-0.2C122-15,122.1-15.2,122.2-15.5z M122.3-17.1
			c0-0.5-0.1-0.8-0.4-1.1c-0.2-0.2-0.5-0.4-0.8-0.4c-0.3,0-0.6,0.1-0.9,0.4s-0.3,0.6-0.3,1H122.3z"/>
		<path id="XMLID_582_" class="st10" d="M130.6-13.6H129v-3.1c0-0.7,0-1.1-0.1-1.3c-0.1-0.2-0.2-0.3-0.3-0.4
			c-0.2-0.1-0.3-0.2-0.6-0.2c-0.3,0-0.5,0.1-0.7,0.2c-0.2,0.2-0.4,0.4-0.5,0.6c-0.1,0.2-0.1,0.7-0.1,1.4v2.7h-1.6v-6h1.5v0.9
			c0.5-0.7,1.2-1,2-1c0.4,0,0.7,0.1,1,0.2c0.3,0.1,0.5,0.3,0.7,0.5c0.1,0.2,0.3,0.4,0.3,0.7c0.1,0.2,0.1,0.6,0.1,1.1V-13.6z"/>
		<path id="XMLID_580_" class="st10" d="M135.1-16.3l1.6-0.2c0.1,0.5,0.3,1,0.6,1.2c0.3,0.3,0.7,0.4,1.2,0.4c0.5,0,0.9-0.1,1.2-0.3
			c0.3-0.2,0.4-0.5,0.4-0.8c0-0.2-0.1-0.4-0.2-0.5c-0.1-0.1-0.3-0.3-0.6-0.4c-0.2-0.1-0.6-0.2-1.3-0.4c-0.9-0.2-1.5-0.5-1.9-0.8
			c-0.5-0.5-0.8-1-0.8-1.7c0-0.4,0.1-0.8,0.4-1.2c0.2-0.4,0.6-0.7,1-0.8c0.5-0.2,1-0.3,1.6-0.3c1,0,1.8,0.2,2.4,0.7
			c0.5,0.5,0.8,1.1,0.8,1.8l-1.7,0.1c-0.1-0.4-0.2-0.7-0.5-0.9c-0.2-0.2-0.6-0.3-1.1-0.3c-0.5,0-0.9,0.1-1.1,0.3
			c-0.2,0.1-0.3,0.3-0.3,0.5c0,0.2,0.1,0.4,0.2,0.5c0.2,0.2,0.7,0.4,1.5,0.6c0.8,0.2,1.4,0.4,1.8,0.6c0.4,0.2,0.7,0.5,0.9,0.8
			c0.2,0.4,0.3,0.8,0.3,1.3c0,0.5-0.1,0.9-0.4,1.3s-0.6,0.7-1.1,0.9c-0.5,0.2-1.1,0.3-1.8,0.3c-1.1,0-1.9-0.2-2.4-0.7
			C135.5-14.7,135.2-15.4,135.1-16.3z"/>
		<path id="XMLID_577_" class="st10" d="M143.2-20.4v-1.5h1.6v1.5H143.2z M143.2-13.6v-6h1.6v6H143.2z"/>
		<path id="XMLID_573_" class="st10" d="M150-15.5l1.6,0.3c-0.2,0.6-0.5,1-1,1.3c-0.4,0.3-1,0.5-1.7,0.5c-1,0-1.8-0.3-2.3-1
			c-0.4-0.5-0.6-1.2-0.6-2.1c0-1,0.3-1.8,0.8-2.3c0.5-0.6,1.2-0.8,2-0.8c0.9,0,1.6,0.3,2.1,0.9s0.8,1.5,0.7,2.7h-4
			c0,0.5,0.1,0.8,0.4,1.1c0.2,0.3,0.6,0.4,0.9,0.4c0.2,0,0.5-0.1,0.6-0.2C149.7-15,149.9-15.2,150-15.5z M150-17.1
			c0-0.5-0.1-0.8-0.4-1.1s-0.5-0.4-0.8-0.4c-0.3,0-0.6,0.1-0.9,0.4c-0.2,0.3-0.3,0.6-0.3,1H150z M149.9-13.6
			c-0.1,0.1-0.1,0.1-0.2,0.2c-0.1,0.1-0.1,0.1-0.2,0.2c0,0.1-0.1,0.2-0.1,0.2c0,0.1,0,0.2,0,0.2c0,0.1,0,0.2,0.1,0.3
			c0.1,0.1,0.2,0.1,0.3,0.1c0.1,0,0.1,0,0.2,0c0.1,0,0.2,0,0.2-0.1v0.9c-0.3,0.2-0.6,0.2-0.9,0.2c-0.2,0-0.4,0-0.6-0.1
			c-0.2-0.1-0.3-0.1-0.4-0.2c-0.1-0.1-0.2-0.2-0.2-0.3c-0.1-0.1-0.1-0.3-0.1-0.4c0-0.2,0.1-0.4,0.2-0.7c0.1-0.2,0.3-0.4,0.5-0.6
			H149.9z"/>
		<path id="XMLID_571_" class="st10" d="M156.2-13.6v-8.3h1.7v3.3h3.3v-3.3h1.7v8.3h-1.7v-3.6h-3.3v3.6H156.2z"/>
		<path id="XMLID_568_" class="st10" d="M164.6-20.4v-1.5h1.6v1.5H164.6z M164.6-13.6v-6h1.6v6H164.6z"/>
		<path id="XMLID_566_" class="st10" d="M167.8-13.6v-8.3h1.6v8.3H167.8z"/>
		<path id="XMLID_564_" class="st10" d="M170.3-19.6h0.9v-0.5c0-0.5,0.1-0.9,0.2-1.1c0.1-0.2,0.3-0.5,0.6-0.6
			c0.3-0.2,0.7-0.2,1.1-0.2c0.5,0,0.9,0.1,1.3,0.2l-0.2,1.1c-0.3-0.1-0.5-0.1-0.7-0.1c-0.2,0-0.4,0.1-0.5,0.2
			c-0.1,0.1-0.1,0.3-0.1,0.6v0.4h1.2v1.3h-1.2v4.8h-1.6v-4.8h-0.9V-19.6z"/>
		<path id="XMLID_561_" class="st10" d="M178.4-15.5l1.6,0.3c-0.2,0.6-0.5,1-1,1.3c-0.4,0.3-1,0.5-1.7,0.5c-1,0-1.8-0.3-2.3-1
			c-0.4-0.5-0.6-1.2-0.6-2.1c0-1,0.3-1.8,0.8-2.3c0.5-0.6,1.2-0.8,2-0.8c0.9,0,1.6,0.3,2.1,0.9s0.8,1.5,0.7,2.7h-4
			c0,0.5,0.1,0.8,0.4,1.1c0.2,0.3,0.6,0.4,0.9,0.4c0.2,0,0.5-0.1,0.6-0.2C178.2-15,178.3-15.2,178.4-15.5z M178.5-17.1
			c0-0.5-0.1-0.8-0.4-1.1s-0.5-0.4-0.8-0.4c-0.3,0-0.6,0.1-0.9,0.4c-0.2,0.3-0.3,0.6-0.3,1H178.5z"/>
		<path id="XMLID_558_" class="st10" d="M184.8-15.7h-1.4c0-0.2,0-0.3,0-0.4c0-0.5,0.1-0.9,0.2-1.2c0.2-0.3,0.5-0.6,0.9-1
			c0.5-0.4,0.7-0.6,0.8-0.7c0.1-0.2,0.2-0.4,0.2-0.6c0-0.3-0.1-0.6-0.4-0.8c-0.2-0.2-0.6-0.3-1-0.3c-0.4,0-0.7,0.1-1,0.3
			s-0.5,0.6-0.6,1.1l-1.5-0.2c0-0.7,0.3-1.3,0.9-1.7c0.5-0.5,1.2-0.7,2.1-0.7c0.9,0,1.6,0.2,2.2,0.7c0.5,0.5,0.8,1,0.8,1.7
			c0,0.4-0.1,0.7-0.3,1c-0.2,0.3-0.6,0.7-1.3,1.3c-0.3,0.3-0.5,0.5-0.6,0.7C184.8-16.5,184.8-16.2,184.8-15.7z M183.3-13.6v-1.6h1.6
			v1.6H183.3z"/>
	</g>
</g>
<g id="XMLID_1_">
	<g id="XMLID_428_">
		<path id="XMLID_454_" class="st10" d="M79.4,74.4h-1.3c-0.7-1.1-1.2-2.2-1.6-3.3c-0.4-1.1-0.6-2.3-0.6-3.3c0-1.3,0.2-2.6,0.7-3.8
			c0.4-1,0.9-2,1.5-2.9h1.3c-0.6,1.4-1.1,2.6-1.3,3.6c-0.2,1-0.4,2-0.4,3.1c0,0.8,0.1,1.5,0.2,2.3c0.1,0.8,0.3,1.5,0.6,2.3
			C78.7,72.8,79,73.5,79.4,74.4z"/>
		<path id="XMLID_452_" class="st10" d="M83.1,70v-2.6h-2.7v-1.8h2.7v-2.6h1.8v2.6h2.7v1.8h-2.7V70H83.1z"/>
		<path id="XMLID_450_" class="st10" d="M88.7,68.7l1.9-0.2c0.1,0.5,0.2,0.8,0.5,1.1c0.3,0.3,0.6,0.4,1,0.4c0.4,0,0.7-0.2,1-0.5
			c0.3-0.3,0.4-0.7,0.4-1.2c0-0.5-0.1-0.9-0.4-1.2c-0.3-0.3-0.6-0.4-1-0.4c-0.2,0-0.5,0-0.9,0.1l0.2-1.6c0.5,0,0.9-0.1,1.2-0.3
			c0.3-0.2,0.4-0.6,0.4-1c0-0.3-0.1-0.6-0.3-0.8c-0.2-0.2-0.5-0.3-0.8-0.3c-0.3,0-0.6,0.1-0.9,0.3c-0.2,0.2-0.4,0.6-0.4,1l-1.8-0.3
			c0.1-0.6,0.3-1.1,0.6-1.5c0.3-0.4,0.6-0.7,1.1-0.9c0.5-0.2,1-0.3,1.5-0.3c1,0,1.7,0.3,2.3,0.9c0.5,0.5,0.7,1.1,0.7,1.7
			c0,0.9-0.5,1.6-1.5,2.1c0.6,0.1,1,0.4,1.4,0.8c0.3,0.4,0.5,1,0.5,1.6c0,0.9-0.3,1.7-1,2.3S93,71.6,92,71.6c-0.9,0-1.7-0.3-2.3-0.8
			C89.1,70.3,88.8,69.6,88.7,68.7z"/>
		<path id="XMLID_448_" class="st10" d="M96.7,68.8l1.9-0.2c0.1,0.4,0.2,0.8,0.5,1c0.3,0.3,0.6,0.4,0.9,0.4c0.4,0,0.7-0.2,1-0.5
			c0.3-0.3,0.4-0.8,0.4-1.5c0-0.6-0.1-1.1-0.4-1.4c-0.3-0.3-0.6-0.5-1.1-0.5c-0.6,0-1.1,0.2-1.5,0.7l-1.6-0.2l1-5.3h5.1v1.8h-3.7
			l-0.3,1.7c0.4-0.2,0.9-0.3,1.3-0.3c0.9,0,1.6,0.3,2.2,0.9c0.6,0.6,0.9,1.4,0.9,2.4c0,0.8-0.2,1.6-0.7,2.2
			c-0.7,0.9-1.6,1.3-2.7,1.3c-0.9,0-1.7-0.3-2.3-0.8C97.1,70.3,96.8,69.7,96.7,68.8z"/>
		<path id="XMLID_446_" class="st10" d="M111.1,69.6v1.8h-6.8c0.1-0.7,0.3-1.3,0.7-1.9c0.4-0.6,1.1-1.4,2.2-2.4
			c0.9-0.8,1.4-1.4,1.6-1.7c0.3-0.4,0.4-0.8,0.4-1.2c0-0.4-0.1-0.8-0.3-1c-0.2-0.2-0.6-0.3-1-0.3c-0.4,0-0.7,0.1-1,0.4
			s-0.4,0.7-0.4,1.2l-1.9-0.2c0.1-1.1,0.5-1.8,1.1-2.3c0.6-0.5,1.4-0.7,2.3-0.7c1,0,1.8,0.3,2.4,0.8c0.6,0.5,0.9,1.2,0.9,2
			c0,0.5-0.1,0.9-0.2,1.3c-0.2,0.4-0.4,0.8-0.8,1.3c-0.2,0.3-0.7,0.7-1.3,1.3s-1,0.9-1.2,1.1c-0.2,0.2-0.3,0.4-0.4,0.5H111.1z"/>
		<path id="XMLID_444_" class="st10" d="M112.3,74.4c0.4-0.8,0.7-1.5,0.8-1.9c0.2-0.4,0.3-0.9,0.4-1.5c0.1-0.6,0.2-1.1,0.3-1.6
			c0.1-0.5,0.1-1,0.1-1.6c0-1.1-0.1-2.1-0.4-3.1c-0.2-1-0.7-2.2-1.3-3.6h1.3c0.7,1,1.2,2,1.6,3.2c0.4,1.1,0.6,2.2,0.6,3.4
			c0,1-0.2,2-0.5,3.1c-0.3,1.2-0.9,2.5-1.7,3.7H112.3z"/>
		<path id="XMLID_442_" class="st10" d="M127.6,69.6v1.8h-6.8c0.1-0.7,0.3-1.3,0.7-1.9c0.4-0.6,1.1-1.4,2.2-2.4
			c0.9-0.8,1.4-1.4,1.6-1.7c0.3-0.4,0.4-0.8,0.4-1.2c0-0.4-0.1-0.8-0.3-1c-0.2-0.2-0.6-0.3-1-0.3c-0.4,0-0.7,0.1-1,0.4
			s-0.4,0.7-0.4,1.2l-1.9-0.2c0.1-1.1,0.5-1.8,1.1-2.3c0.6-0.5,1.4-0.7,2.3-0.7c1,0,1.8,0.3,2.4,0.8c0.6,0.5,0.9,1.2,0.9,2
			c0,0.5-0.1,0.9-0.2,1.3c-0.2,0.4-0.4,0.8-0.8,1.3c-0.2,0.3-0.7,0.7-1.3,1.3s-1,0.9-1.2,1.1c-0.2,0.2-0.3,0.4-0.4,0.5H127.6z"/>
		<path id="XMLID_439_" class="st10" d="M135.5,63.7l-1.9,0.2c0-0.4-0.2-0.7-0.4-0.9s-0.4-0.3-0.8-0.3c-0.4,0-0.8,0.2-1,0.6
			c-0.3,0.4-0.5,1.1-0.5,2.3c0.5-0.6,1.1-0.9,1.8-0.9c0.8,0,1.5,0.3,2.1,0.9c0.6,0.6,0.9,1.4,0.9,2.4c0,1-0.3,1.9-0.9,2.5
			c-0.6,0.6-1.4,0.9-2.3,0.9c-1,0-1.9-0.4-2.5-1.2c-0.7-0.8-1-2.1-1-3.9c0-1.9,0.3-3.2,1-4c0.7-0.8,1.6-1.2,2.7-1.2
			c0.8,0,1.4,0.2,1.9,0.6C135.1,62.3,135.4,62.9,135.5,63.7z M131.1,68c0,0.6,0.1,1.1,0.4,1.5c0.3,0.3,0.6,0.5,1,0.5
			c0.4,0,0.7-0.1,0.9-0.4c0.2-0.3,0.4-0.7,0.4-1.4c0-0.7-0.1-1.1-0.4-1.5c-0.3-0.3-0.6-0.5-1-0.5c-0.4,0-0.7,0.1-0.9,0.4
			C131.3,67,131.1,67.4,131.1,68z"/>
		<path id="XMLID_437_" class="st10" d="M140.8,68.8l1.9-0.2c0.1,0.4,0.2,0.8,0.5,1c0.3,0.3,0.6,0.4,0.9,0.4c0.4,0,0.7-0.2,1-0.5
			c0.3-0.3,0.4-0.8,0.4-1.5c0-0.6-0.1-1.1-0.4-1.4c-0.3-0.3-0.6-0.5-1.1-0.5c-0.6,0-1.1,0.2-1.5,0.7l-1.6-0.2l1-5.3h5.1v1.8h-3.7
			l-0.3,1.7c0.4-0.2,0.9-0.3,1.3-0.3c0.9,0,1.6,0.3,2.2,0.9c0.6,0.6,0.9,1.4,0.9,2.4c0,0.8-0.2,1.6-0.7,2.2
			c-0.7,0.9-1.6,1.3-2.7,1.3c-0.9,0-1.7-0.3-2.3-0.8C141.3,70.3,140.9,69.7,140.8,68.8z"/>
		<path id="XMLID_435_" class="st10" d="M155.2,69.6v1.8h-6.8c0.1-0.7,0.3-1.3,0.7-1.9c0.4-0.6,1.1-1.4,2.2-2.4
			c0.9-0.8,1.4-1.4,1.6-1.7c0.3-0.4,0.4-0.8,0.4-1.2c0-0.4-0.1-0.8-0.3-1c-0.2-0.2-0.6-0.3-1-0.3c-0.4,0-0.7,0.1-1,0.4
			c-0.2,0.2-0.4,0.7-0.4,1.2l-1.9-0.2c0.1-1.1,0.5-1.8,1.1-2.3c0.6-0.5,1.4-0.7,2.3-0.7c1,0,1.8,0.3,2.4,0.8c0.6,0.5,0.9,1.2,0.9,2
			c0,0.5-0.1,0.9-0.2,1.3c-0.2,0.4-0.4,0.8-0.8,1.3c-0.2,0.3-0.7,0.7-1.3,1.3c-0.6,0.6-1,0.9-1.2,1.1c-0.2,0.2-0.3,0.4-0.4,0.5
			H155.2z"/>
		<path id="XMLID_433_" class="st10" d="M160.5,68.8l1.9-0.2c0.1,0.4,0.2,0.8,0.5,1c0.3,0.3,0.6,0.4,0.9,0.4c0.4,0,0.7-0.2,1-0.5
			c0.3-0.3,0.4-0.8,0.4-1.5c0-0.6-0.1-1.1-0.4-1.4c-0.3-0.3-0.6-0.5-1.1-0.5c-0.6,0-1.1,0.2-1.5,0.7l-1.6-0.2l1-5.3h5.1v1.8h-3.7
			l-0.3,1.7c0.4-0.2,0.9-0.3,1.3-0.3c0.9,0,1.6,0.3,2.2,0.9c0.6,0.6,0.9,1.4,0.9,2.4c0,0.8-0.2,1.6-0.7,2.2
			c-0.7,0.9-1.6,1.3-2.7,1.3c-0.9,0-1.7-0.3-2.3-0.8C161,70.3,160.6,69.7,160.5,68.8z"/>
		<path id="XMLID_431_" class="st10" d="M168.4,68.8l1.9-0.2c0.1,0.4,0.2,0.8,0.5,1c0.3,0.3,0.6,0.4,0.9,0.4c0.4,0,0.7-0.2,1-0.5
			c0.3-0.3,0.4-0.8,0.4-1.5c0-0.6-0.1-1.1-0.4-1.4c-0.3-0.3-0.6-0.5-1.1-0.5c-0.6,0-1.1,0.2-1.5,0.7l-1.6-0.2l1-5.3h5.1v1.8h-3.7
			l-0.3,1.7c0.4-0.2,0.9-0.3,1.3-0.3c0.9,0,1.6,0.3,2.2,0.9c0.6,0.6,0.9,1.4,0.9,2.4c0,0.8-0.2,1.6-0.7,2.2
			c-0.7,0.9-1.6,1.3-2.7,1.3c-0.9,0-1.7-0.3-2.3-0.8C168.9,70.3,168.5,69.7,168.4,68.8z"/>
		<path id="XMLID_429_" class="st10" d="M185.2,71.4h-1.9v-7.3c-0.7,0.7-1.5,1.2-2.5,1.5v-1.8c0.5-0.2,1.1-0.5,1.7-0.9
			c0.6-0.5,1-1,1.2-1.6h1.6V71.4z"/>
	</g>
</g>
<g id="XMLID_13_">
	<path id="XMLID_42_" class="st10" d="M76.4,42.1v-14h2.8l5.7,9.4v-9.4h2.6v14h-2.8L79.1,33v9.1H76.4z"/>
	<path id="XMLID_82_" class="st10" d="M96.4,38.9l2.7,0.4c-0.3,1-0.9,1.7-1.6,2.2c-0.7,0.5-1.7,0.8-2.8,0.8c-1.8,0-3.1-0.6-3.9-1.7
		c-0.7-0.9-1-2.1-1-3.5c0-1.7,0.4-3,1.3-4c0.9-1,2-1.4,3.3-1.4c1.5,0,2.7,0.5,3.6,1.5c0.9,1,1.3,2.5,1.3,4.6h-6.7
		c0,0.8,0.2,1.4,0.7,1.9c0.4,0.4,0.9,0.7,1.5,0.7c0.4,0,0.8-0.1,1.1-0.3S96.3,39.4,96.4,38.9z M96.6,36.2c0-0.8-0.2-1.4-0.6-1.8
		c-0.4-0.4-0.8-0.6-1.4-0.6c-0.6,0-1.1,0.2-1.5,0.6c-0.4,0.4-0.6,1-0.6,1.7H96.6z"/>
	<path id="XMLID_85_" class="st10" d="M107.3,38.9l2.7,0.4c-0.3,1-0.9,1.7-1.6,2.2c-0.7,0.5-1.7,0.8-2.8,0.8c-1.8,0-3.1-0.6-3.9-1.7
		c-0.7-0.9-1-2.1-1-3.5c0-1.7,0.4-3,1.3-4c0.9-1,2-1.4,3.3-1.4c1.5,0,2.7,0.5,3.6,1.5c0.9,1,1.3,2.5,1.3,4.6h-6.7
		c0,0.8,0.2,1.4,0.7,1.9c0.4,0.4,0.9,0.7,1.5,0.7c0.4,0,0.8-0.1,1.1-0.3S107.2,39.4,107.3,38.9z M107.5,36.2c0-0.8-0.2-1.4-0.6-1.8
		c-0.4-0.4-0.8-0.6-1.4-0.6c-0.6,0-1.1,0.2-1.5,0.6c-0.4,0.4-0.6,1-0.6,1.7H107.5z"/>
	<path id="XMLID_88_" class="st10" d="M121.7,42.1h-2.5v-1.5c-0.4,0.6-0.9,1-1.5,1.3c-0.6,0.3-1.1,0.4-1.7,0.4c-1.2,0-2.2-0.5-3-1.4
		c-0.8-0.9-1.2-2.3-1.2-3.9c0-1.7,0.4-3,1.2-3.9c0.8-0.9,1.8-1.3,3.1-1.3c1.1,0,2.1,0.5,2.9,1.4v-5.1h2.7V42.1z M114.5,36.8
		c0,1.1,0.2,1.9,0.5,2.4c0.4,0.7,1,1.1,1.8,1.1c0.6,0,1.1-0.3,1.6-0.8c0.4-0.5,0.7-1.3,0.7-2.4c0-1.2-0.2-2-0.6-2.5
		c-0.4-0.5-1-0.8-1.6-0.8c-0.6,0-1.2,0.3-1.6,0.8C114.7,35.1,114.5,35.8,114.5,36.8z"/>
	<path id="XMLID_91_" class="st10" d="M132.4,28.1v5.2c0.9-1,1.9-1.5,3.1-1.5c0.6,0,1.2,0.1,1.7,0.3c0.5,0.2,0.9,0.5,1.1,0.9
		c0.3,0.4,0.4,0.8,0.5,1.2c0.1,0.4,0.1,1.1,0.1,2v6h-2.7v-5.4c0-1.1-0.1-1.7-0.2-2c-0.1-0.3-0.3-0.5-0.5-0.7c-0.3-0.2-0.6-0.3-1-0.3
		c-0.4,0-0.8,0.1-1.2,0.3c-0.4,0.2-0.6,0.5-0.8,1c-0.2,0.4-0.2,1.1-0.2,1.9v5.1h-2.7v-14H132.4z"/>
	<path id="XMLID_93_" class="st10" d="M147.6,38.9l2.7,0.4c-0.3,1-0.9,1.7-1.6,2.2c-0.7,0.5-1.7,0.8-2.8,0.8c-1.8,0-3.1-0.6-3.9-1.7
		c-0.7-0.9-1-2.1-1-3.5c0-1.7,0.4-3,1.3-4c0.9-1,2-1.4,3.3-1.4c1.5,0,2.7,0.5,3.6,1.5c0.9,1,1.3,2.5,1.3,4.6h-6.7
		c0,0.8,0.2,1.4,0.7,1.9c0.4,0.4,0.9,0.7,1.5,0.7c0.4,0,0.8-0.1,1.1-0.3S147.5,39.4,147.6,38.9z M147.8,36.2c0-0.8-0.2-1.4-0.6-1.8
		c-0.4-0.4-0.8-0.6-1.4-0.6c-0.6,0-1.1,0.2-1.5,0.6c-0.4,0.4-0.6,1-0.6,1.7H147.8z"/>
	<path id="XMLID_96_" class="st10" d="M152.6,42.1v-14h2.7v14H152.6z"/>
	<path id="XMLID_98_" class="st10" d="M158,32h2.5v1.5c0.3-0.5,0.8-0.9,1.3-1.2c0.6-0.3,1.2-0.5,1.8-0.5c1.2,0,2.2,0.5,3,1.4
		c0.8,0.9,1.2,2.2,1.2,3.9c0,1.7-0.4,3-1.2,4c-0.8,0.9-1.8,1.4-3,1.4c-0.6,0-1.1-0.1-1.5-0.3c-0.5-0.2-0.9-0.6-1.4-1.1V46H158V32z
		 M160.7,36.9c0,1.1,0.2,2,0.7,2.5c0.5,0.5,1,0.8,1.7,0.8c0.6,0,1.1-0.3,1.6-0.8c0.4-0.5,0.6-1.3,0.6-2.5c0-1.1-0.2-1.9-0.6-2.4
		s-1-0.8-1.6-0.8c-0.7,0-1.2,0.3-1.6,0.8C160.9,35.1,160.7,35.9,160.7,36.9z"/>
	<path id="XMLID_101_" class="st10" d="M181.3,38.5h-2.4c0-0.4,0-0.6,0-0.6c0-0.8,0.1-1.4,0.4-2s0.8-1.1,1.6-1.7
		c0.8-0.6,1.3-1.1,1.4-1.3c0.2-0.3,0.4-0.7,0.4-1c0-0.5-0.2-1-0.6-1.3c-0.4-0.4-1-0.6-1.7-0.6c-0.7,0-1.3,0.2-1.7,0.6
		c-0.5,0.4-0.8,1-0.9,1.8l-2.5-0.3c0.1-1.1,0.6-2.1,1.5-2.9c0.9-0.8,2.1-1.2,3.6-1.2c1.5,0,2.8,0.4,3.7,1.2c0.9,0.8,1.4,1.7,1.4,2.8
		c0,0.6-0.2,1.2-0.5,1.7c-0.3,0.5-1.1,1.3-2.1,2.2c-0.6,0.5-0.9,0.9-1.1,1.1C181.3,37.3,181.3,37.8,181.3,38.5z M178.8,42.1v-2.7
		h2.7v2.7H178.8z"/>
</g>
</svg>
