<?xml version="1.0" encoding="UTF-8" standalone="no"?>
<!-- Created with Inkscape (http://www.inkscape.org/) -->

<svg
   xmlns:dc="http://purl.org/dc/elements/1.1/"
   xmlns:cc="http://creativecommons.org/ns#"
   xmlns:rdf="http://www.w3.org/1999/02/22-rdf-syntax-ns#"
   xmlns:svg="http://www.w3.org/2000/svg"
   xmlns="http://www.w3.org/2000/svg"
   xmlns:sodipodi="http://sodipodi.sourceforge.net/DTD/sodipodi-0.dtd"
   xmlns:inkscape="http://www.inkscape.org/namespaces/inkscape"
   width="210mm"
   height="297mm"
   viewBox="0 0 744.09448819 1052.3622047"
   id="svg4165"
   version="1.1"
   inkscape:version="0.91 r13725"
   sodipodi:docname="dessin2.svg">
  <defs
     id="defs4167" />
  <sodipodi:namedview
     id="base"
     pagecolor="#ffffff"
     bordercolor="#666666"
     borderopacity="1.0"
     inkscape:pageopacity="0.0"
     inkscape:pageshadow="2"
     inkscape:zoom="1.979899"
     inkscape:cx="425.68871"
     inkscape:cy="629.67238"
     inkscape:document-units="px"
     inkscape:current-layer="layer1"
     showgrid="false"
     inkscape:window-width="1600"
     inkscape:window-height="851"
     inkscape:window-x="0"
     inkscape:window-y="25"
     inkscape:window-maximized="1" />
  <metadata
     id="metadata4170">
    <rdf:RDF>
      <cc:Work
         rdf:about="">
        <dc:format>image/svg+xml</dc:format>
        <dc:type
           rdf:resource="http://purl.org/dc/dcmitype/StillImage" />
        <dc:title></dc:title>
      </cc:Work>
    </rdf:RDF>
  </metadata>
  <g
     inkscape:label="Calque 1"
     inkscape:groupmode="layer"
     id="layer1">
    <path
       style="fill:#916f6f"
       d="m 447.27339,368.85282 c -0.35572,-0.42861 -0.7696,-1.69957 -0.91973,-2.82436 -0.21973,-1.64614 -0.48876,-2.0757 -1.37923,-2.20216 -0.60845,-0.0864 -1.35386,-0.639 -1.65648,-1.22798 -0.77174,-1.50202 -2.87814,-3.28124 -3.88461,-3.28124 -0.99047,0 -1.77128,-0.84222 -2.01889,-2.17764 -0.0968,-0.52232 -1.05333,-1.40647 -2.12552,-1.96477 -1.62016,-0.84365 -2.0606,-1.40956 -2.60748,-3.35037 -0.73416,-2.60543 -3.25517,-4.78703 -5.53181,-4.78703 -1.78183,0 -2.95651,-1.01117 -3.33723,-2.87269 -0.17961,-0.8782 -0.43709,-1.60858 -0.57216,-1.62307 -0.13508,-0.0145 -1.51584,0.13236 -3.06835,0.32633 -2.58931,0.32352 -2.90278,0.25662 -3.7904,-0.80889 -0.53221,-0.63887 -0.975,-1.64273 -0.98399,-2.23079 -0.0209,-1.36617 -2.43266,-2.61474 -5.05074,-2.61474 -2.0666,0 -4.78945,-1.29655 -4.78945,-2.28062 0,-0.32737 -0.55259,-1.02989 -1.22798,-1.56116 -0.86995,-0.6843 -1.23009,-1.44656 -1.23522,-2.61441 -0.004,-0.90666 -0.33201,-2.20107 -0.72894,-2.87646 -0.39693,-0.67539 -0.86153,-1.61479 -1.03243,-2.08757 -0.1709,-0.47277 -0.60611,-0.85958 -0.96712,-0.85958 -1.7098,0 -3.15858,-1.16268 -3.15858,-2.53481 0,-1.29795 -0.1353,-1.39473 -1.9499,-1.39473 -1.90395,0 -1.96583,-0.055 -2.62529,-2.33317 -0.57252,-1.9778 -0.93014,-2.41735 -2.34803,-2.88594 -2.62974,-0.86908 -2.45907,-3.49909 0.41493,-6.39401 0.60785,-0.61228 1.10518,-1.45483 1.10518,-1.87235 0,-0.41751 0.21066,-0.75911 0.46814,-0.75911 0.25749,0 0.81015,-0.7207 1.22814,-1.60157 0.418,-0.88086 1.26455,-2.15182 1.88123,-2.82435 0.61668,-0.67253 1.64337,-2.07445 2.28154,-3.11536 1.40167,-2.28626 3.65713,-3.75182 5.77778,-3.7543 0.86206,-10e-4 1.70399,-0.22288 1.87096,-0.49303 0.16696,-0.27016 0.91139,-0.4912 1.65428,-0.4912 0.74289,0 1.77976,-0.32452 2.30417,-0.72117 0.52441,-0.39663 1.76931,-0.72819 2.76645,-0.73678 0.99714,-0.009 1.94959,-0.23666 2.11656,-0.50682 0.16696,-0.27015 0.80087,-0.49119 1.40868,-0.49119 0.60781,0 1.53417,-0.32453 2.05858,-0.72117 0.52441,-0.39664 1.76931,-0.72819 2.76645,-0.73679 0.99714,-0.009 1.94959,-0.23665 2.11656,-0.50681 0.16696,-0.27015 0.78786,-0.49255 1.37976,-0.49422 0.59191,-0.001 1.70931,-0.33322 2.48312,-0.73679 0.77381,-0.40356 1.98951,-0.74079 2.70156,-0.74938 0.71205,-0.009 1.72369,-0.34015 2.2481,-0.73679 0.52441,-0.39664 1.56129,-0.72116 2.30418,-0.72116 0.74288,0 1.48731,-0.22104 1.65428,-0.4912 0.16696,-0.27015 1.00889,-0.49902 1.87096,-0.5086 0.86206,-0.01 2.11997,-0.33329 2.79536,-0.71938 0.67539,-0.38609 1.67495,-0.70981 2.22125,-0.71938 1.72042,-0.0302 4.50593,-2.74735 4.91766,-4.79709 0.20455,-1.01828 0.45477,-11.50552 0.55605,-23.30499 l 0.18414,-21.45357 9.93663,-0.15889 c 7.76794,-0.12421 10.19485,-0.31969 11.11973,-0.89567 1.14351,-0.71214 6.45664,-5.90101 9.75785,-9.52963 1.88484,-2.07177 2.56685,-2.22291 2.56685,-0.5688 0,0.65944 0.22103,1.3356 0.49119,1.50256 0.27016,0.16697 0.49903,1.0089 0.5086,1.87096 0.01,0.86206 0.33329,2.11998 0.71938,2.79537 0.38609,0.67539 0.70981,1.80355 0.71938,2.50703 0.01,0.70348 0.51474,1.82018 1.12259,2.48156 0.60785,0.66138 2.02003,2.40669 3.13818,3.87847 1.11815,1.47178 2.44635,3.11803 2.95156,3.65834 0.50522,0.54031 1.68227,1.97705 2.6157,3.19275 0.93341,1.2157 2.20239,2.69714 2.81994,3.2921 0.61755,0.59495 1.12282,1.22463 1.12282,1.3993 0,0.68242 3.101,3.16768 3.9525,3.16768 0.49579,0 1.03806,0.22103 1.20502,0.49119 0.16697,0.27016 1.52076,0.49119 3.00844,0.49119 1.48767,0 3.18766,0.25852 3.77775,0.57448 0.59009,0.31596 2.62014,0.76585 4.51124,0.99977 1.89109,0.23391 4.87508,0.60082 6.63109,0.81535 1.75601,0.21454 3.81499,0.64879 4.57551,0.965 3.33726,1.38761 6.6496,0.14427 9.23456,-3.46636 0.91437,-1.27717 1.82827,-2.32709 2.03088,-2.33316 0.20262,-0.006 0.3684,-0.29807 0.3684,-0.64888 0,-0.35081 0.88414,-1.55797 1.96477,-2.68258 1.08062,-1.1246 1.96477,-2.18741 1.96477,-2.36179 0,-0.17438 0.88414,-1.42749 1.96476,-2.7847 1.08063,-1.35721 1.96556,-2.71507 1.96652,-3.01747 9.8e-4,-0.30241 0.80214,-1.48924 1.78041,-2.6374 l 1.77867,-2.08756 4.55768,0 4.55768,0 0.25727,2.33316 c 0.47377,4.29671 1.22861,8.02739 1.75173,8.65772 0.35689,0.43002 0.3602,0.78283 0.0106,1.1324 -0.27928,0.27928 -0.63716,1.76144 -0.79531,3.2937 -0.15814,1.53226 -0.47698,2.90301 -0.70852,3.04612 -0.23154,0.1431 -0.42882,1.18654 -0.43839,2.31876 -0.01,1.13222 -0.33328,2.61117 -0.71936,3.28656 -0.38609,0.67539 -0.70982,2.15434 -0.71938,3.28656 -0.01,1.13222 -0.23845,2.19518 -0.50861,2.36215 -0.27015,0.16697 -0.49119,1.79797 -0.49119,3.62446 0,2.94642 0.15232,3.48319 1.35078,4.76014 1.54013,1.641 4.19444,3.15842 5.52479,3.15842 0.4959,0 0.97532,0.21835 1.06538,0.48522 0.0901,0.26687 1.33622,0.89783 2.76927,1.40213 1.43306,0.5043 2.85874,1.1701 3.1682,1.47955 0.30945,0.30945 0.85298,0.56264 1.20785,0.56264 0.35487,0 1.03179,0.24141 1.50426,0.53648 0.7922,0.49474 0.84459,1.61039 0.6733,14.3365 -0.12681,9.42025 -0.36259,13.97054 -0.74292,14.33734 -0.30644,0.29553 -2.657,1.85295 -5.22348,3.46092 -8.49994,5.32545 -8.84147,5.85128 -8.84147,13.61288 0,4.96663 -0.10606,5.65475 -0.98799,6.40989 -0.54341,0.46527 -1.16163,0.84595 -1.37383,0.84595 -0.2122,0 -0.92804,0.65375 -1.59076,1.45277 -1.01884,1.22841 -1.56528,1.456 -3.5381,1.47358 -3.41953,0.0305 -4.29793,1.09957 -4.29793,5.23088 0,2.85617 -0.10041,3.20677 -0.83738,2.92397 -2.62994,-1.00921 -5.0054,-0.87895 -7.29357,0.39993 -1.2693,0.70943 -3.0068,1.28987 -3.86111,1.28987 -1.23975,0 -1.92625,0.44617 -3.40093,2.21037 -1.0162,1.2157 -2.16819,2.21036 -2.55998,2.21036 -0.39179,0 -0.71234,0.44207 -0.71234,0.98239 0,0.83684 -0.32746,0.98238 -2.21036,0.98238 -1.21571,0 -2.21037,0.22104 -2.21037,0.49119 0,0.27962 -1.44811,0.49119 -3.36195,0.49119 -3.69925,0 -4.47699,0.44112 -7.11072,4.03299 -0.85167,1.16152 -1.59997,1.7215 -2.06297,1.54383 -0.51726,-0.19849 -0.72655,0.0618 -0.72655,0.90349 0,2.13202 -0.75151,2.36116 -7.74401,2.36116 -3.61084,0 -6.98251,0.22336 -7.49261,0.49635 -0.51009,0.273 -2.26764,0.63644 -3.90567,0.80764 -2.48059,0.25928 -3.02166,0.48412 -3.23821,1.34562 -0.40492,1.61087 -2.46835,2.26231 -7.16585,2.26231 -2.36483,0 -4.84859,0.25009 -5.51947,0.55576 -0.67087,0.30567 -1.62068,0.39304 -2.11068,0.19414 -0.48999,-0.19889 -2.22466,-0.41567 -3.85482,-0.48173 -1.63015,-0.0661 -3.43917,-0.37446 -4.02004,-0.68533 -0.58088,-0.31088 -2.25409,-0.56523 -3.71826,-0.56523 -2.1588,0 -2.91264,0.23218 -3.98714,1.22799 -1.07628,0.99746 -1.82739,1.22798 -4.00126,1.22798 -2.21566,0 -2.67882,-0.14794 -2.69119,-0.85959 -0.0142,-0.81866 -0.0387,-0.81866 -0.5156,0 -0.62014,1.06473 -1.12648,1.08546 -1.9607,0.0803 z"
       id="path4239"
       inkscape:connector-curvature="0" />
    <path
       style="fill:#916f6f"
       d="m 499.58143,438.89023 c -0.6596,-1.17359 -1.46604,-1.96477 -2.00267,-1.96477 -0.49412,0 -1.03624,-0.35922 -1.20472,-0.79826 -0.24605,-0.64119 -0.71546,-0.73289 -2.38572,-0.46605 -1.14366,0.18272 -2.28938,0.54193 -2.54602,0.79826 -0.61935,0.61857 -2.72612,0.59914 -2.72612,-0.0251 0,-0.27015 -0.34734,-0.49119 -0.77188,-0.49119 -0.42452,0 -1.10342,-0.33155 -1.50866,-0.73679 -0.83702,-0.83702 -1.47306,-0.89438 -8.2801,-0.74682 -2.70155,0.0586 -5.19137,0.33551 -5.53293,0.61543 -0.97576,0.79966 -4.09058,0.84104 -6.39564,0.085 -1.15761,-0.3797 -2.87064,-0.69036 -3.80674,-0.69036 -0.93611,0 -1.70201,-0.22104 -1.70201,-0.49119 0,-0.60961 -4.05137,-0.65409 -4.69089,-0.0515 -0.38072,0.35873 -3.88049,0.82117 -8.08011,1.06765 -0.40524,0.0238 -1.22834,0.28121 -1.82913,0.57206 -0.96281,0.46612 -1.32684,0.27229 -3.06995,-1.63465 -1.08769,-1.18992 -1.97761,-2.38592 -1.97761,-2.65778 0,-0.27187 -0.60785,-0.76402 -1.35078,-1.09367 -1.80413,-0.80051 -2.69779,-2.35455 -2.66629,-4.63657 0.015,-1.08997 -0.20829,-1.88057 -0.53122,-1.88057 -0.30644,0 0.42578,-0.71489 1.62716,-1.58865 1.20139,-0.87375 2.25802,-1.7579 2.34807,-1.96477 0.09,-0.20686 0.47686,-0.37612 0.85958,-0.37612 0.51244,0 0.69586,-0.68324 0.69586,-2.59209 0,-2.18308 0.22815,-2.84188 1.44589,-4.17513 0.79524,-0.87068 1.7083,-1.58305 2.02904,-1.58305 0.97179,0 0.14476,-3.35346 -1.29139,-5.23635 -1.51731,-1.98929 -2.54,-7.88498 -1.8863,-10.87425 0.539,-2.46475 0.34915,-3.56508 -0.79981,-4.63549 -1.00143,-0.93299 -1.31523,-2.33995 -0.52189,-2.33995 0.24702,0 1.33128,-0.82888 2.40947,-1.84197 1.80242,-1.69357 1.98252,-2.09919 2.23555,-5.03472 0.19275,-2.23631 0.0731,-3.55745 -0.39926,-4.41019 -0.56947,-1.02792 -0.57046,-1.41855 -0.006,-2.50932 0.61537,-1.18998 0.99226,-1.31819 4.77821,-1.62538 2.26058,-0.18342 4.48188,-0.19085 4.93621,-0.0165 0.45434,0.17434 1.74967,-0.0526 2.87852,-0.50424 2.43044,-0.97246 6.84356,-0.89975 8.94251,0.14734 2.14798,1.07155 8.08093,1.03102 9.69877,-0.0663 1.007,-0.68298 2.20417,-0.86555 5.40312,-0.82395 2.26021,0.0294 4.44104,0.022 4.84627,-0.0165 0.40523,-0.0385 1.2241,0.0797 1.8197,0.26268 0.90117,0.27681 1.14151,0.0973 1.43214,-1.06961 0.45045,-1.80867 1.5085,-2.59513 3.51747,-2.6146 1.00784,-0.01 1.72384,-0.30763 1.91083,-0.79491 0.2623,-0.68354 1.30957,-0.74685 8.52388,-0.51534 l 8.22484,0.26394 0.28247,-1.41234 c 0.15536,-0.77679 0.95076,-2.09599 1.76755,-2.93156 0.8168,-0.83557 1.8373,-2.20033 2.26779,-3.03279 0.76891,-1.48691 0.84045,-1.51111 4.06052,-1.37384 1.96723,0.0839 3.86702,-0.12207 4.75141,-0.51505 0.81046,-0.36013 2.35489,-0.78798 3.43206,-0.95077 1.49868,-0.22649 2.11006,-0.61241 2.60412,-1.64377 0.35511,-0.74128 1.13963,-1.47177 1.74338,-1.6233 0.60375,-0.15153 1.31071,-0.76073 1.571,-1.35377 0.65485,-1.49191 3.59408,-2.3925 8.74582,-2.67975 4.23183,-0.23595 4.36695,-0.28142 5.27848,-1.77629 0.51451,-0.84378 0.93754,-1.97621 0.94006,-2.51652 0.002,-0.54031 0.22114,-1.75602 0.48584,-2.70156 0.47134,-1.68368 0.53926,-1.72204 3.29025,-1.8578 2.47857,-0.12233 2.96564,-0.32455 4.14073,-1.71918 l 1.33174,-1.58054 1.02398,1.08464 c 0.56319,0.59656 1.03193,1.25967 1.04164,1.47358 0.01,0.21391 0.54273,1.03113 1.18449,1.81603 0.80125,0.97998 1.03779,1.67249 0.75498,2.21036 -0.22651,0.4308 -0.54093,1.11483 -0.6987,1.52006 -0.15778,0.40524 -0.71035,1.3999 -1.22794,2.21037 -0.51759,0.81047 -0.95723,1.83332 -0.97698,2.27302 -0.0197,0.43969 -0.36745,1.07461 -0.77269,1.41092 -0.40523,0.33631 -0.73678,1.00807 -0.73678,1.49279 0,0.48472 -0.16578,0.95499 -0.3684,1.04504 -0.52002,0.23112 -2.08757,3.30389 -2.08757,4.09214 0,0.36083 -0.16577,0.72973 -0.36839,0.81978 -0.53381,0.23725 -2.08757,3.31346 -2.08757,4.13308 0,0.38334 -0.1785,0.69698 -0.39666,0.69698 -0.79157,0 -2.0593,3.82694 -2.0593,6.21648 0,1.995 0.25809,2.73712 1.3946,4.01009 0.76702,0.85912 1.828,1.56204 2.35772,1.56204 0.52972,0 1.20154,0.23841 1.49293,0.52981 0.69215,0.69214 4.10318,-0.43047 5.8056,-1.91071 0.68004,-0.59128 1.45579,-1.07506 1.72389,-1.07506 0.2681,0 0.48745,-0.22103 0.48745,-0.49119 0,-0.27016 0.28999,-0.49119 0.64442,-0.49119 0.35443,0 1.13467,-0.66311 1.73388,-1.47358 1.62522,-2.19822 2.86542,-1.95921 3.1859,0.61399 0.44644,3.58449 1.45849,7.73628 1.88582,7.73628 0.22498,0 0.40906,0.74663 0.40906,1.65919 0,0.91255 0.33156,2.45271 0.73679,3.42257 0.40523,0.96986 0.73679,2.42054 0.73679,3.22374 0,0.8032 0.22103,1.59698 0.49119,1.76394 0.27016,0.16697 0.49903,1.0089 0.5086,1.87096 0.01,0.86207 0.33329,2.11998 0.71938,2.79537 0.38609,0.67539 0.70981,2.04382 0.71938,3.04096 0.01,0.99714 0.23845,1.94959 0.5086,2.11656 0.61282,0.37874 0.65483,4.66632 0.0457,4.66632 -0.24501,0 -0.81971,1.27096 -1.27711,2.82436 -1.38281,4.69624 -3.05155,7.4462 -4.11841,6.78684 -0.72694,-0.44927 -3.46392,1.18697 -3.18804,1.90588 0.14,0.36485 0.0185,0.80928 -0.27013,0.98763 -0.6844,0.42299 -0.68301,3.21345 10e-4,3.21345 0.67145,0 -0.44222,1.13115 -1.86151,1.89073 -0.58815,0.31477 -1.46014,1.23383 -1.93774,2.04234 -0.60974,1.03221 -1.24824,1.47004 -2.14379,1.47004 -0.70147,0 -2.20823,0.4507 -3.34835,1.00154 -1.14012,0.55085 -2.25425,0.88948 -2.47586,0.75253 -0.74067,-0.45777 -2.08262,0.96436 -2.23698,2.37063 -0.16237,1.47914 -0.96135,2.24102 -2.363,2.25328 -0.47277,0.004 -0.85958,0.19465 -0.85958,0.42337 0,0.22871 -0.77023,1.20892 -1.71163,2.17824 -1.5649,1.61133 -1.84883,1.72305 -3.3123,1.30333 -2.98927,-0.85731 -8.57335,-0.55546 -11.08957,0.59945 -2.51978,1.15655 -4.9133,1.46929 -5.85511,0.76505 -0.41779,-0.3124 -0.77976,-0.0593 -1.18403,0.828 -0.38553,0.84639 -0.97024,1.27797 -1.73131,1.27797 -0.63202,0 -1.14913,0.22103 -1.14913,0.49119 0,0.29405 -1.93202,0.49119 -4.81369,0.49119 -3.01556,0 -5.02797,0.21429 -5.38735,0.57367 -0.43742,0.43742 -1.02839,0.43742 -2.48839,0 -2.72962,-0.81782 -6.72952,-0.73225 -7.62488,0.16312 -0.40524,0.40524 -1.37499,0.73679 -2.155,0.73679 -1.14308,0 -1.63245,-0.38117 -2.52248,-1.96477 z"
       id="path4241"
       inkscape:connector-curvature="0" />
    <path
       style="fill:#916f6f"
       d="m 341.13958,443.55656 c -0.50133,-1.2157 -1.09924,-2.21037 -1.32868,-2.21037 -0.22945,0 -0.41717,-0.23036 -0.41717,-0.51192 0,-0.28156 -0.22488,-0.77889 -0.49973,-1.10519 -1.22276,-1.45163 -5.89884,-8.28078 -6.60475,-9.64587 -0.42891,-0.82941 -0.93993,-1.50974 -1.13561,-1.51185 -0.61102,-0.007 -1.58376,-2.57614 -1.58376,-4.18361 0,-0.96942 0.40749,-1.90348 1.10518,-2.53331 1.26993,-1.14641 4.13716,-2.6119 5.11019,-2.6119 0.36373,0 0.66132,-0.22104 0.66132,-0.49119 0,-0.27016 0.71837,-0.49256 1.59638,-0.49422 0.878,-0.001 2.22949,-0.33322 3.0033,-0.73679 0.77381,-0.40357 2.21054,-0.74111 3.19275,-0.75008 1.9099,-0.0174 5.20511,-1.95924 6.15872,-3.62918 0.54191,-0.94899 1.33819,-1.98215 3.21082,-4.16594 0.55668,-0.64919 1.01215,-1.31471 1.01215,-1.47894 0,-0.16423 0.76939,-1.18034 1.70975,-2.25801 0.94036,-1.07767 1.71399,-2.12518 1.71917,-2.3278 0.005,-0.20261 0.39624,-0.78806 0.86901,-1.30099 2.56018,-2.77765 3.06995,-3.42953 3.06995,-3.92576 0,-0.29962 0.22104,-0.54476 0.4912,-0.54476 0.27015,0 0.49119,-0.33155 0.49119,-0.73678 0,-0.40524 0.20301,-0.73679 0.45113,-0.73679 0.24812,0 0.94593,-0.8006 1.55068,-1.77911 1.09451,-1.77095 1.09662,-1.81539 0.46059,-9.70104 -0.35142,-4.35708 -0.66241,-12.67109 -0.69109,-18.47558 l -0.0521,-10.55363 1.47358,-0.69727 c 0.81047,-0.3835 1.54726,-0.88399 1.63731,-1.11219 0.09,-0.2282 0.40259,-0.41491 0.69453,-0.41491 0.88565,0 4.29925,-1.63508 4.29925,-2.0593 0,-0.21817 0.25728,-0.39666 0.57173,-0.39666 0.91662,0 4.34019,-1.62439 4.34019,-2.0593 0,-0.21817 0.38681,-0.40402 0.85959,-0.41301 2.44112,-0.0464 4.54352,-3.77853 4.54352,-8.06556 0,-1.66047 0.21718,-3.23622 0.48262,-3.50165 0.48969,-0.4897 1.34518,-6.83851 1.80201,-13.37324 0.248,-3.54758 0.26643,-3.58814 1.56193,-3.43835 1.04942,0.12135 1.34413,0.44557 1.47723,1.62516 0.20974,1.85896 0.77477,2.53521 3.11642,3.72983 1.03116,0.52606 1.87483,1.27319 1.87483,1.66029 0,0.3871 0.97219,1.13386 2.16042,1.65947 1.69625,0.75034 2.2323,1.28294 2.49499,2.47895 0.18402,0.83781 0.49306,1.52329 0.68676,1.52329 0.4715,0 0.40165,2.05198 -0.0962,2.82783 -0.25515,0.39758 -0.0791,0.7163 0.49446,0.89502 1.79275,0.55866 2.38127,1.06751 3.19677,2.76402 0.82488,1.71601 0.86859,1.73497 4.78995,2.07703 3.20025,0.27917 4.05517,0.52778 4.46809,1.29933 0.28085,0.52476 0.47533,1.22791 0.43218,1.56255 -0.16609,1.28808 0.0652,1.83641 0.77473,1.83641 0.40523,0 0.73679,0.22104 0.73679,0.4912 0,0.27015 0.30449,0.49119 0.67664,0.49119 0.37216,0 0.95181,0.33155 1.28813,0.73679 0.38684,0.46612 1.47054,0.73678 2.95,0.73678 1.88177,0 2.38605,0.18171 2.5818,0.93027 0.14995,0.57341 0.87851,1.06622 1.89926,1.2847 0.9108,0.19494 1.87703,0.51947 2.14719,0.72118 0.27015,0.20171 1.09904,0.51195 1.84197,0.68943 0.84714,0.20237 1.35078,0.64884 1.35078,1.19747 0,0.48113 0.20373,1.08477 0.45274,1.34142 0.249,0.25665 0.64537,1.24026 0.88081,2.1858 0.30699,1.23286 0.85335,1.90921 1.93147,2.39098 0.82686,0.36949 1.87973,1.3089 2.3397,2.08757 0.45997,0.77867 1.08823,1.41576 1.39614,1.41576 0.98795,0 4.29656,2.56366 4.29656,3.32917 0,0.40679 0.66311,1.37331 1.47358,2.14784 0.81046,0.77452 1.47211,1.6826 1.47034,2.01795 -0.005,0.89768 -1.50801,2.98851 -3.18952,4.43621 -1.43093,1.23198 -1.44593,1.28919 -0.51841,1.97714 0.87646,0.65009 0.90262,0.88381 0.31754,2.83666 -0.61553,2.05443 -0.5933,2.16353 0.64121,3.1479 1.64105,1.30853 1.61235,1.5984 -0.13291,1.34225 -1.19893,-0.17597 -1.51362,0.0249 -2.08757,1.3323 -0.37321,0.85017 -1.16899,1.66427 -1.77723,1.81815 -0.90399,0.22871 -1.04651,0.5114 -0.79513,1.57713 0.16846,0.71416 0.69174,1.74055 1.16284,2.28086 1.71111,1.96251 2.11488,3.21666 1.441,4.47584 -0.48465,0.90557 -0.49566,1.57855 -0.0502,3.06554 0.31396,1.04789 0.57083,2.44325 0.57083,3.1008 0,0.65756 0.25588,1.45143 0.56862,1.76417 0.43068,0.43068 0.41609,0.75238 -0.0601,1.32622 -0.52263,0.62973 -0.49425,0.7576 0.16818,0.7576 0.43831,0 0.79693,0.32462 0.79693,0.72138 0,0.43941 -0.28798,0.61086 -0.73679,0.43864 -0.99815,-0.38303 -0.97039,1.1164 0.031,1.67682 0.69631,0.38968 0.69631,0.48906 0,1.06694 -0.56601,0.46975 -0.76782,1.56538 -0.76782,4.16842 0,2.87471 -0.18619,3.73103 -1.00152,4.60618 -0.55084,0.59126 -1.2804,1.07501 -1.62125,1.07501 -1.28889,0 -3.26403,1.26181 -3.26771,2.08756 -0.002,0.5353 -0.38027,0.85959 -1.00163,0.85959 -1.27874,0 -1.73822,1.20501 -1.04207,2.73288 0.40307,0.88465 0.40018,1.19666 -0.0111,1.19666 -0.30599,0 -1.31314,0.88414 -2.23812,1.96477 l -1.68177,1.96477 -6.31823,0 c -3.68231,0 -6.44489,0.20492 -6.62181,0.49119 -0.16697,0.27015 -1.22994,0.49822 -2.36215,0.50681 -1.13222,0.009 -2.48764,0.34015 -3.01205,0.73679 -0.52441,0.39664 -1.46381,0.72117 -2.08757,0.72117 -0.68062,0 -1.13409,0.29461 -1.13409,0.73679 0,1.01195 -0.79592,0.92326 -1.93477,-0.2156 -0.8586,-0.8586 -1.44005,-0.92454 -5.90464,-0.66969 -4.45195,0.25413 -4.92109,0.20148 -4.64378,-0.52119 0.17758,-0.46277 0.064,-0.80389 -0.26755,-0.80389 -1.25423,0 -2.36106,1.02056 -2.64466,2.43852 -0.27893,1.39467 -0.44059,1.49102 -2.50171,1.49102 -1.61904,0 -2.46327,0.27882 -3.18283,1.05117 -0.86569,0.92921 -1.14601,0.98213 -2.41598,0.45609 -0.79017,-0.3273 -1.73957,-0.54443 -2.10977,-0.48251 -0.37021,0.0619 -1.11518,-0.088 -1.65549,-0.33318 -1.38819,-0.62989 -6.51059,-0.49091 -8.84145,0.23987 -1.08062,0.3388 -2.39665,0.60972 -2.92452,0.60205 -0.52786,-0.008 -1.24623,0.22381 -1.59637,0.5144 -0.45943,0.3813 -0.84604,0.35456 -1.389,-0.0961 -0.58819,-0.48815 -1.16338,-0.50128 -2.63575,-0.0601 -2.84784,0.85323 -7.41812,0.74694 -7.41812,-0.17252 0,-0.40523 -0.28237,-0.73679 -0.62749,-0.73679 -1.22303,0 -2.81086,1.53654 -2.81086,2.72006 0,0.89981 -0.33006,1.26309 -1.35077,1.48675 -0.74293,0.16279 -1.60497,0.37261 -1.91565,0.46628 -0.31068,0.0937 -0.56488,0.93665 -0.56488,1.87328 0,2.8233 -0.50054,3.76867 -1.9954,3.76867 -1.12538,0 -1.48564,-0.35371 -2.25129,-2.21036 z"
       id="path4243"
       inkscape:connector-curvature="0" />
    <path
       style="fill:#916f6f"
       d="m 290.6175,524.53697 c -0.17155,-0.17156 -0.70572,-0.35202 -1.18704,-0.40103 -0.48133,-0.049 -1.5032,-0.26924 -2.27084,-0.4894 -1.21904,-0.34962 -1.35026,-0.56309 -1.03667,-1.68653 0.19746,-0.70744 0.45395,-3.60285 0.56996,-6.43423 0.116,-2.83138 0.42456,-5.40539 0.68568,-5.72001 0.26112,-0.31464 0.61084,-2.8056 0.77715,-5.53548 0.16631,-2.72987 0.49003,-4.96341 0.71938,-4.96341 0.22934,0 0.41699,-0.27855 0.41699,-0.61901 0,-0.98773 2.40608,-3.31052 3.42924,-3.31052 0.51343,0 1.07012,-0.22104 1.23709,-0.4912 0.16696,-0.27015 1.11941,-0.49902 2.11655,-0.5086 0.99714,-0.01 2.36558,-0.33329 3.04097,-0.71938 0.67539,-0.38608 1.9333,-0.70981 2.79536,-0.71938 0.86207,-0.01 1.704,-0.23844 1.87096,-0.5086 0.16697,-0.27015 0.89838,-0.49255 1.62537,-0.49422 0.72698,-10e-4 1.9549,-0.33322 2.72871,-0.73678 0.77381,-0.40357 2.14225,-0.73377 3.04097,-0.73377 0.89872,0 1.77064,-0.22103 1.93761,-0.49119 0.16696,-0.27016 0.84702,-0.49119 1.51124,-0.49119 0.74023,0 1.86973,-0.68174 2.91817,-1.76134 1.48712,-1.53133 1.71049,-2.07989 1.71049,-4.20062 0,-1.45182 0.38297,-3.17462 0.94604,-4.25577 0.52032,-0.99906 1.21411,-2.74164 1.54175,-3.87239 0.53798,-1.85669 0.77925,-2.08692 2.48973,-2.37591 1.04172,-0.17599 2.01875,-0.52179 2.17119,-0.76844 0.15243,-0.24665 1.15125,-0.44845 2.2196,-0.44845 1.06834,0 2.32626,-0.20897 2.79537,-0.46436 0.4691,-0.2554 1.68069,-0.59676 2.69241,-0.75858 2.72175,-0.43534 5.11758,-3.09328 5.45398,-6.05067 0.60632,-5.3304 1.74535,-13.19003 2.0602,-14.21606 0.26224,-0.85454 0.70703,-1.10518 1.96123,-1.10518 2.32925,0 4.51973,-1.43126 5.34827,-3.49456 0.43151,-1.0746 1.40361,-2.1829 2.46271,-2.80779 0.96239,-0.56782 1.74979,-1.3672 1.74979,-1.7764 0,-1.01613 1.87917,-1.40508 5.63354,-1.16602 2.05233,0.13069 3.47547,0.49317 4.07839,1.03881 0.50933,0.46094 1.50553,0.83807 2.21376,0.83807 0.70823,0 1.51299,0.38682 1.78835,0.85959 0.31522,0.54119 0.5062,0.61914 0.5156,0.21044 0.01,-0.41657 0.49889,-0.59255 1.36571,-0.49119 0.93784,0.10967 1.35633,-0.0673 1.36895,-0.57884 0.062,-2.51418 2.38055,-3.67283 5.89119,-2.94402 1.46815,0.30478 2.79679,0.76032 2.95252,1.0123 0.49025,0.79324 4.56902,0.49794 6.73883,-0.48788 1.14521,-0.52032 2.99751,-1.08827 4.11621,-1.26211 1.21356,-0.18858 2.48641,-0.79764 3.15558,-1.50993 1.89631,-2.01853 6.56348,-1.27378 5.72418,0.91342 -0.18352,0.47824 0.27256,0.61963 1.75459,0.54396 1.10141,-0.0562 2.45922,0.0661 3.01738,0.27191 1.41829,0.52291 2.14709,0.16028 3.00253,-1.49395 0.52138,-1.00823 1.10603,-1.4292 1.98493,-1.4292 1.63884,0 6.13444,-1.44238 7.11785,-2.28372 0.9894,-0.84645 3.10936,-0.81338 5.61004,0.0875 1.08062,0.38931 2.98846,0.71116 4.23963,0.71523 2.01003,0.007 2.42189,-0.18537 3.53779,-1.64838 1.81545,-2.38018 2.77853,-2.44835 5.18386,-0.36694 1.12953,0.97741 2.7084,2.29057 3.50859,2.91811 1.17776,0.92365 1.36169,1.31514 0.96557,2.05527 -0.69155,1.29219 -0.6071,1.68811 0.21461,1.00615 0.56089,-0.46549 0.92404,-0.36409 1.78718,0.49905 1.4911,1.4911 4.48689,1.72444 8.85707,0.68985 5.6371,-1.33451 9.92779,-1.37156 13.78592,-0.11902 2.93871,0.95405 3.59619,1.00516 6.3855,0.49638 1.7102,-0.31194 5.54087,-0.69995 8.51258,-0.86224 5.04567,-0.27554 5.55611,-0.21712 7.7157,0.88317 3.05391,1.55593 3.82732,2.24152 3.82732,3.39269 0,0.52653 0.33156,1.28888 0.73679,1.69411 0.9264,0.9264 0.9264,1.38923 0,2.31562 -0.80964,0.80965 -1.05357,5.95632 -0.30424,6.41943 0.2379,0.14703 0.53517,0.80418 0.6606,1.46033 0.17148,0.89707 -0.0713,1.35322 -0.97862,1.83881 -1.43693,0.76902 -2.07072,2.20923 -1.73805,3.94948 0.13335,0.69758 4.9e-4,1.41781 -0.29499,1.6005 -0.29559,0.18269 -0.53745,0.65067 -0.53745,1.03996 0,0.91499 -1.75758,2.67257 -2.67257,2.67257 -0.38928,0 -0.8444,0.22103 -1.01137,0.49119 -0.16697,0.27016 -0.75967,0.49119 -1.31711,0.49119 -0.84524,0 -0.912,0.12235 -0.40206,0.73679 0.53,0.63862 0.27622,0.73679 -1.90463,0.73679 -1.38386,0 -2.5161,0.22104 -2.5161,0.49119 0,0.2809 -1.47884,0.49119 -3.45413,0.49119 -2.11751,0 -4.16078,0.30969 -5.28031,0.80032 -1.00441,0.44017 -2.71034,0.77628 -3.79097,0.74691 -1.54684,-0.0421 -1.7558,0.0416 -0.98238,0.39314 0.74609,0.33914 0.36213,0.45485 -1.59638,0.48107 -1.94942,0.0261 -2.57876,0.21433 -2.57876,0.77131 0,0.96896 -0.33665,0.92966 -1.78317,-0.20818 -0.97658,-0.76817 -1.72623,-0.89748 -4.00701,-0.69114 -3.09628,0.28011 -5.91718,1.34404 -6.31546,2.38193 -0.19353,0.50433 -0.88817,0.59691 -2.78931,0.37175 -2.858,-0.33849 -3.77035,-1.0004 -3.77035,-2.73539 0,-1.17613 -0.07,-1.19582 -4.05234,-1.14027 l -4.05234,0.0565 -0.15344,-1.58998 c -0.19036,-1.97251 -1.66222,-3.07634 -4.102,-3.07634 -1.00456,0 -1.94545,-0.19249 -2.09085,-0.42775 -0.1454,-0.23526 -0.93207,-0.56129 -1.74816,-0.72451 -1.09416,-0.21883 -1.4838,-0.57175 -1.4838,-1.34398 0,-0.74051 -0.22123,-0.96232 -0.75538,-0.75735 -0.42982,0.16494 -0.87587,-0.0241 -1.03493,-0.43864 -0.15376,-0.40067 -0.69798,-0.7285 -1.20939,-0.7285 -0.66436,0 -0.92984,-0.3506 -0.92984,-1.22798 0,-0.90052 -0.26196,-1.22798 -0.98238,-1.22798 -0.65492,0 -0.98238,-0.32747 -0.98238,-0.98239 0,-0.84854 -0.32747,-0.98238 -2.40341,-0.98238 -1.68325,0 -2.48813,0.22077 -2.68615,0.73678 -0.17746,0.46246 -0.92858,0.73679 -2.01732,0.73679 -0.95402,0 -1.73459,0.23593 -1.73459,0.5243 0,0.30898 -0.42334,0.38992 -1.03087,0.1971 -0.87736,-0.27846 -0.98216,-0.17367 -0.70369,0.70369 0.19321,0.60875 0.1119,1.03087 -0.19856,1.03087 -0.28917,0 -0.90347,0.87185 -1.36512,1.93745 -0.46165,1.06559 -1.34514,2.20813 -1.96331,2.53896 -0.61817,0.33084 -1.12395,0.78521 -1.12395,1.00971 0,0.22451 -0.55259,0.40819 -1.22798,0.40819 -0.76408,0 -1.22798,0.27834 -1.22798,0.73679 0,0.40523 -0.33155,0.73679 -0.73679,0.73679 -0.4879,0 -0.73678,0.48797 -0.73678,1.44459 0,0.79452 -0.22104,1.58119 -0.4912,1.74816 -0.27015,0.16696 -0.49119,1.14487 -0.49119,2.17311 0,1.1476 -0.39312,2.36931 -1.01803,3.16376 -0.91207,1.1595 -1.34828,1.29423 -4.19055,1.29423 -2.3669,0 -3.24432,0.18709 -3.45525,0.73678 -0.15551,0.40524 -0.82223,0.73679 -1.48162,0.73679 -1.26049,0 -3.60793,2.12398 -3.60793,3.26448 0,0.36578 -0.30935,0.66506 -0.68743,0.66506 -0.37809,0 -1.83704,0.77363 -3.24211,1.71917 -1.98081,1.33299 -3.0523,1.71918 -4.76987,1.71918 -3.00784,0 -6.82752,2.41349 -7.29673,4.61049 -0.4505,2.10938 -1.08443,2.75739 -2.69745,2.75739 -1.03733,0 -1.71651,0.46596 -2.7258,1.87006 -0.73932,1.02853 -1.90291,2.13371 -2.58574,2.45596 -1.49618,0.70608 -3.50163,0.76916 -3.50163,0.11013 0,-0.26168 -0.33156,-0.34855 -0.73679,-0.19305 -0.40523,0.15551 -0.73679,0.70116 -0.73679,1.21257 0,0.5114 -0.22104,0.92983 -0.49119,0.92983 -0.27016,0 -0.49119,0.36271 -0.49119,0.80603 0,0.70388 -0.52438,0.77331 -4.13798,0.54786 -3.39666,-0.21191 -4.09121,-0.13632 -3.87698,0.42196 0.19994,0.52103 -0.29705,0.68259 -2.12473,0.69073 -2.10859,0.009 -2.55635,0.20908 -3.85462,1.71917 -0.80788,0.93971 -1.72364,1.70856 -2.03501,1.70856 -0.96956,0 -1.2256,1.572 -0.40392,2.47995 0.66025,0.72957 0.68196,1.02475 0.13928,1.89373 -0.35359,0.56619 -0.81076,1.02943 -1.01593,1.02943 -0.20517,0 -0.37304,0.47212 -0.37304,1.04915 0,0.96585 -0.18132,1.0243 -2.28361,0.73615 -2.60148,-0.35657 -3.6107,-1.00968 -3.6107,-2.33663 0,-0.50723 -0.33155,-0.92224 -0.73679,-0.92224 -0.40523,0 -0.73678,0.22103 -0.73678,0.49119 0,0.27016 -0.44208,0.0491 -0.98239,-0.49119 -0.54031,-0.54031 -1.27968,-0.98239 -1.64304,-0.98239 -0.36337,0 -1.07666,-0.45967 -1.58509,-1.02148 -0.67832,-0.74954 -1.29216,-0.94793 -2.30571,-0.74522 -1.96569,0.39313 -3.76532,1.83799 -3.78338,3.03753 -0.009,0.56388 -0.87803,1.93202 -1.93232,3.04031 -1.0543,1.10829 -2.17662,2.80204 -2.49406,3.76389 -0.55058,1.66828 -0.68286,1.74962 -2.87223,1.76623 -2.23765,0.017 -2.26435,0.035 -1.06709,0.71938 l 1.22798,0.70197 -1.35078,0.0174 c -0.74293,0.01 -1.35078,0.23846 -1.35078,0.50862 0,0.27015 -0.31577,0.49119 -0.7017,0.49119 -0.38594,0 -1.03136,0.32966 -1.43428,0.73257 -0.64929,0.6493 -0.80154,0.57675 -1.33935,-0.63826 -0.86301,-1.94966 -4.38375,-3.4792 -4.38375,-1.90446 0,0.3552 -0.77362,1.01473 -1.71917,1.46563 -0.94554,0.4509 -1.71917,1.04443 -1.71917,1.31896 0,0.27452 -0.49733,0.50617 -1.10518,0.51476 -0.60785,0.009 -1.53425,0.34015 -2.05866,0.73679 -0.97926,0.74068 -2.81542,0.96367 -3.36985,0.40925 z m 135.34886,-66.19162 c 1.23246,-0.93556 1.06689,-1.281 -0.61399,-1.281 -1.5927,0 -1.62047,0.028 -1.17543,1.1878 0.35839,0.93394 0.66111,0.94971 1.78942,0.0932 z m -42.85653,-0.78981 c 0,-0.27016 -0.44207,-0.49119 -0.98238,-0.49119 -0.54031,0 -0.98239,0.22103 -0.98239,0.49119 0,0.27015 0.44208,0.49119 0.98239,0.49119 0.54031,0 0.98238,-0.22104 0.98238,-0.49119 z"
       id="path4245"
       inkscape:connector-curvature="0" />
    <path
       style="fill:#916f6f"
       d="m 522.60845,537.0714 c 0,-0.30665 -0.43314,-0.43521 -0.98239,-0.29158 -0.68866,0.18009 -0.98492,0.0137 -0.99087,-0.5567 -0.0137,-1.31868 -2.05431,-2.87119 -4.26458,-3.24462 -1.13073,-0.19103 -2.30399,-0.64629 -2.60723,-1.01167 -0.64989,-0.78308 -0.77838,-2.97195 -0.26872,-4.57776 0.37879,-1.19346 -0.50715,-4.01376 -1.26084,-4.01376 -0.89662,0 -0.38181,-3.04556 0.84269,-4.98529 0.95043,-1.50557 1.20162,-2.40817 0.98835,-3.55138 -0.15727,-0.84303 -0.64216,-4.29573 -1.07753,-7.67268 -0.43538,-3.37695 -0.94916,-6.4551 -1.14175,-6.84033 -0.19258,-0.38524 -0.15248,-2.00646 0.0891,-3.60273 0.2416,-1.59626 0.30978,-3.03179 0.15152,-3.19006 -0.15827,-0.15826 -1.40961,-0.2622 -2.78077,-0.23096 -3.10031,0.0706 -5.28517,-0.65411 -4.45991,-1.47937 0.80007,-0.80007 0.71223,-2.70291 -0.14696,-3.18374 -1.2613,-0.70586 -4.68338,-5.67591 -5.1813,-7.52507 -0.46465,-1.72555 -1.9765,-2.92808 -3.68126,-2.92808 -0.52446,0 -0.72791,-0.924 -0.83648,-3.79892 l -0.14346,-3.79892 -2.08756,-1.14981 c -1.89771,-1.04523 -2.08757,-1.32252 -2.08757,-3.04878 0,-1.04444 0.22103,-2.03559 0.49119,-2.20256 0.27016,-0.16696 0.49119,-0.88878 0.49119,-1.60404 0,-0.8638 0.56636,-1.80244 1.68669,-2.79537 2.16312,-1.91715 2.40624,-4.94467 0.67893,-8.45465 -0.4206,-0.85468 -0.31776,-1.35554 0.5198,-2.53179 1.08563,-1.52462 1.42123,-4.70759 0.55293,-5.24422 -1.69289,-1.04626 0.75968,-1.30809 3.10193,-0.33115 1.64705,0.68698 7.80117,0.7718 8.46565,0.11669 0.29083,-0.28673 1.36205,-0.071 2.84332,0.57265 2.19275,0.95279 2.61953,0.98444 5.51435,0.40904 1.99532,-0.3966 4.38284,-0.49861 6.55781,-0.28019 3.06369,0.30767 3.53528,0.2362 4.52491,-0.68578 0.60762,-0.56608 1.63551,-1.02924 2.28419,-1.02924 0.64869,0 1.54641,-0.41162 1.99495,-0.91471 1.18446,-1.32851 8.87211,-3.19229 11.40344,-2.76463 1.10324,0.18639 2.07692,0.59316 2.16374,0.90393 0.0868,0.31077 0.43857,1.89126 0.78167,3.5122 0.3431,1.62093 0.81879,3.16819 1.0571,3.43834 0.23831,0.27016 1.69472,0.71223 3.23646,0.98239 l 2.80319,0.49119 0.12668,6.3855 c 0.085,4.28298 0.35769,6.87069 0.82828,7.85908 0.38588,0.81046 0.82108,1.8651 0.96711,2.34364 0.22243,0.72891 0.69329,0.8353 2.90235,0.65575 2.19524,-0.17843 2.83676,-0.0362 3.83059,0.84911 2.46942,2.19981 2.84858,3.33243 2.62873,7.85231 -0.23732,4.87903 -0.65217,4.5112 5.66239,5.02059 4.65618,0.37561 5.89431,0.82337 5.89431,2.13162 0,1.19355 1.43723,2.77678 2.94716,3.24657 1.46275,0.45511 1.94711,1.09428 1.95725,2.58282 0.005,0.71932 0.30763,1.10781 0.8671,1.1127 0.70612,0.006 0.73364,0.0872 0.15418,0.45389 -0.60387,0.38211 -0.57545,0.73457 0.19739,2.44844 0.89386,1.98223 1.91446,2.57422 2.39308,1.38808 0.19534,-0.48412 0.25595,-0.48189 0.28652,0.0105 0.0213,0.34348 -0.53669,1.49412 -1.24005,2.55698 l -1.27884,1.93245 0.91044,1.97388 0.91045,1.97388 4.29793,0.0127 c 3.6326,0.0107 4.45001,0.16475 5.28032,0.99506 0.54031,0.54031 0.98238,1.32972 0.98238,1.75425 0,0.8822 -1.14711,2.1753 -1.92968,2.1753 -0.28946,0 -0.52628,0.22104 -0.52628,0.4912 0,0.27015 -0.89868,0.49119 -1.99706,0.49119 -2.94559,0 -3.78652,0.64539 -4.16962,3.20007 -0.18269,1.21832 -0.52771,2.33597 -0.76669,2.48367 -0.23898,0.1477 -0.43452,1.55597 -0.43452,3.12949 l 0,2.86094 -3.16791,0.20172 c -2.63066,0.16751 -3.55771,0.48164 -5.46624,1.85224 -2.16835,1.5572 -2.39472,1.61567 -4.00317,1.03405 -1.2405,-0.44857 -1.8521,-0.46923 -2.24548,-0.0759 -0.29735,0.29735 -0.94544,0.54063 -1.44019,0.54063 -0.49477,0 -1.01903,0.31132 -1.16504,0.69181 -0.14602,0.38051 -0.9233,0.9643 -1.7273,1.29733 -1.34081,0.55538 -1.59164,0.48795 -3.02995,-0.81462 -0.86247,-0.78106 -1.64392,-1.58589 -1.73656,-1.78851 -0.0926,-0.20262 -0.81314,-0.36839 -1.60109,-0.36839 -0.946,0 -1.43264,-0.25028 -1.43264,-0.73679 0,-0.40524 -0.24087,-0.73679 -0.53526,-0.73679 -0.7254,0 -2.3753,2.03301 -2.39555,2.95179 -0.0267,1.21134 -1.70568,1.90432 -4.25559,1.75644 -3.00551,-0.17431 -4.60222,0.76032 -4.60222,2.69389 0,1.22533 -0.22382,1.43516 -1.84197,1.72673 -2.31851,0.41776 -3.06995,1.01038 -3.06995,2.42106 0,0.77925 -0.36946,1.20732 -1.22798,1.42279 -1.23498,0.30996 -1.65086,1.44374 -0.73679,2.00866 0.27016,0.16697 0.49119,0.51157 0.49119,0.76578 0,0.62036 -3.79007,0.59405 -4.17513,-0.029 -0.16697,-0.27015 -0.7326,-0.49119 -1.25697,-0.49119 -0.52437,-10e-6 -0.9534,-0.30792 -0.9534,-0.68425 0,-1.15685 -1.53189,-1.40924 -1.82191,-0.30017 -0.14159,0.54142 -0.6352,0.98441 -1.09691,0.98441 -0.46171,0 -1.36054,0.55464 -1.99739,1.23254 -0.71657,0.76276 -1.48233,1.12958 -2.00905,0.96241 -0.46813,-0.14858 -0.99331,-0.0401 -1.16706,0.24103 -0.41941,0.67862 -1.24033,0.65393 -1.24033,-0.0373 z"
       id="path4247"
       inkscape:connector-curvature="0" />
    <path
       style="fill:#916f6f"
       d="m 574.92043,611.78992 c -1.04493,-1.15463 -2.78937,-1.26647 -4.31522,-0.27667 -1.60126,1.03874 -7.54208,0.92851 -7.90404,-0.14664 -0.14899,-0.44257 -0.57969,-1.62004 -0.9571,-2.61661 -0.44288,-1.16941 -0.51742,-1.98073 -0.21021,-2.28794 0.30721,-0.30721 0.29917,-1.05812 -0.0227,-2.1176 -0.97118,-3.19707 -1.10138,-4.83435 -0.38442,-4.83435 0.91325,0 1.32417,-1.24558 0.85215,-2.58302 -0.68002,-1.92679 -0.16597,-2.82009 1.62281,-2.82009 1.25331,0 1.6895,-0.24331 1.90354,-1.0618 0.35158,-1.34446 -0.36613,-2.71008 -1.63615,-3.11317 -1.3833,-0.43904 -1.39545,-4.09493 -0.0175,-5.27474 0.55565,-0.47577 1.08913,-0.62633 1.25697,-0.35476 0.62173,1.00598 1.10169,0.37785 1.42227,-1.86135 0.45267,-3.16182 0.3612,-5.08775 -0.27824,-5.85823 -0.29361,-0.35378 -0.56965,-1.35537 -0.61342,-2.22577 -0.0693,-1.37736 -0.29296,-1.62618 -1.72536,-1.91913 -1.85789,-0.37999 -2.48446,-1.10743 -2.48982,-2.89067 -0.004,-1.25892 1.69524,-2.45596 3.48589,-2.45596 0.87083,0 1.75609,-2.48855 1.20339,-3.38283 -0.15624,-0.25281 0.58674,-0.60677 1.65107,-0.78659 1.26848,-0.21431 2.20289,-0.73559 2.71236,-1.51312 0.42747,-0.6524 1.54692,-1.8866 2.48767,-2.74267 1.68432,-1.53269 2.18374,-3.01292 1.21794,-3.60982 -0.32591,-0.20142 -0.31413,-0.63771 0.0348,-1.28972 0.29004,-0.54194 0.46101,-1.75513 0.37995,-2.69599 -0.16025,-1.86 0.53851,-2.6243 2.41092,-2.63705 0.89389,-0.006 1.10519,-0.2837 1.10519,-1.4521 0,-0.79453 0.22103,-1.5812 0.49119,-1.74817 1.15646,-0.71472 0.0136,-2.80288 -2.21744,-4.05141 -1.46729,-0.82113 -2.41055,-13.22021 -1.18649,-15.59628 0.6453,-1.25262 5.20632,-3.25555 7.10846,-3.12162 0.79915,0.0563 2.15511,-0.26555 3.01326,-0.71515 1.36391,-0.71457 1.6009,-1.14275 1.88307,-3.40226 0.17754,-1.42165 0.26614,-2.80585 0.19689,-3.07601 -0.0693,-0.27015 0.26861,-1.43261 0.75081,-2.58324 0.6429,-1.53409 1.22228,-2.1639 2.17238,-2.36151 4.66666,-0.97057 5.69801,-1.35153 6.53314,-2.41323 0.50519,-0.64224 1.68853,-1.6436 2.62965,-2.22524 1.26721,-0.78318 1.70938,-1.39757 1.70441,-2.36825 -0.01,-1.91515 -0.5225,-3.52108 -1.12411,-3.52108 -0.28877,0 -1.00193,-0.44802 -1.5848,-0.99559 -1.10844,-1.04133 -5.25282,-1.94368 -8.9502,-1.94872 -1.14816,-10e-4 -2.08757,-0.12434 -2.08757,-0.27284 0,-0.14849 0.34459,-0.93635 0.76576,-1.7508 0.69562,-1.34519 0.69319,-1.6993 -0.0266,-3.86636 -0.61717,-1.85811 -1.10847,-2.49575 -2.22206,-2.88395 -0.9388,-0.32727 -1.51996,-0.93087 -1.69257,-1.75795 -0.14459,-0.69276 -0.37999,-1.82162 -0.52312,-2.50858 -0.14313,-0.68695 -0.64046,-1.38905 -1.10518,-1.56021 -1.58659,-0.58436 -4.03767,-2.70899 -4.05134,-3.51177 -0.008,-0.44071 -0.64439,-1.41976 -1.4153,-2.17566 -1.11784,-1.09607 -1.83617,-1.36845 -3.5475,-1.34518 -1.18022,0.0161 -3.19577,-0.1061 -4.47901,-0.27146 l -2.33316,-0.30066 0,-2.91896 c 0,-1.60543 -0.38682,-4.24164 -0.85959,-5.85825 -0.76807,-2.62636 -1.0722,-3.04245 -2.85664,-3.90827 -1.09838,-0.53294 -2.92193,-0.96899 -4.05234,-0.96899 -1.48031,0 -2.05528,-0.20188 -2.05528,-0.72166 0,-0.39691 -0.47191,-1.62704 -1.04869,-2.73361 -0.91272,-1.75109 -1.01491,-2.56506 -0.78821,-6.27783 0.14326,-2.34623 0.41095,-4.63491 0.59488,-5.08594 0.25893,-0.63496 -0.18704,-1.05073 -1.97578,-1.84197 -1.27061,-0.56205 -2.60061,-1.02191 -2.95556,-1.02191 -1.06367,0 -1.26812,-0.84971 -0.70638,-2.93582 0.3077,-1.14272 0.82953,-1.9761 1.23735,-1.9761 0.38788,0 1.0268,-0.60785 1.41983,-1.35078 0.39302,-0.74293 1.37023,-1.7791 2.17156,-2.30261 0.80134,-0.5235 1.85028,-1.62868 2.33098,-2.45596 1.05125,-1.80916 1.60213,-2.2235 2.96933,-2.2334 0.57141,-0.004 1.60094,-0.44959 2.28784,-0.98991 0.68689,-0.54031 1.79646,-0.98238 2.46571,-0.98238 0.76274,0 1.52352,-0.46809 2.03872,-1.2544 0.45206,-0.68992 1.27657,-1.42259 1.83226,-1.62815 1.04041,-0.38487 2.28897,-3.05046 2.71797,-5.80269 0.134,-0.85962 0.58078,-1.69232 0.99284,-1.85044 0.8308,-0.31881 2.09827,0.52143 2.09827,1.39099 0,0.30737 0.49733,1.12092 1.10519,1.80787 1.18923,1.344 2.13562,2.72071 2.67991,3.89847 0.18727,0.40524 0.52273,0.95783 0.74545,1.22798 0.22272,0.27016 1.28379,1.77197 2.35793,3.33736 l 1.95298,2.84617 0,4.96655 c 0,5.91813 -0.27606,5.44684 8.09245,13.81534 l 5.66094,5.66095 0,11.13541 c 0,9.63831 0.11329,11.32722 0.84269,12.56199 0.46348,0.78461 1.01607,1.42656 1.22798,1.42656 0.21191,0 0.38529,0.33156 0.38529,0.73679 0,0.40523 0.17077,0.73679 0.3795,0.73679 0.20871,0 0.79611,0.77363 1.30532,1.71917 0.50921,0.94555 1.09404,1.71917 1.29962,1.71917 0.20558,0 0.87748,0.82889 1.4931,1.84198 0.61562,1.01308 1.24879,1.95248 1.40705,2.08756 0.15825,0.13508 1.14657,1.4613 2.19626,2.94716 1.04969,1.48585 2.14759,2.92768 2.43976,3.20406 0.29217,0.27638 0.77378,0.93949 1.07025,1.47358 0.73898,1.33128 4.14502,3.63638 5.40261,3.65631 2.09249,0.0332 5.20542,-1.96779 6.47892,-4.16457 0.51401,-0.88668 0.56753,-0.83227 0.5811,0.59075 0.008,0.86206 0.23597,1.704 0.50613,1.87096 0.27015,0.16697 0.49119,0.73261 0.49119,1.25697 0,1.34879 1.28083,2.46831 4.67058,4.08238 1.61859,0.7707 3.27445,1.59908 3.67969,1.84083 0.40523,0.24176 1.06834,0.56871 1.47357,0.72656 0.75395,0.2937 2.06084,0.83791 4.66633,1.94312 0.81047,0.34379 2.57876,1.15461 3.92954,1.80183 l 2.45596,1.17676 0.2456,16.42621 c 0.26121,17.4709 0.27261,17.55372 2.80233,20.36683 1.37791,1.53227 3.66756,4.25705 5.54794,6.60228 0.94554,1.1793 1.94338,2.3841 2.21742,2.67734 0.27405,0.29324 1.26463,1.52783 2.2013,2.74353 0.93667,1.2157 2.42357,2.98399 3.30422,3.92954 0.88066,0.94554 1.60311,1.97942 1.60545,2.29751 0.002,0.31808 0.50159,0.98939 1.10944,1.49179 1.52997,1.26456 2.55605,3.09306 1.72334,3.07105 -0.80095,-0.0212 -2.82852,-1.7126 -2.82852,-2.35958 0,-0.27461 -0.64885,-0.82297 -1.44189,-1.21859 l -1.44188,-0.71931 -0.59112,2.3064 -0.59111,2.30641 -3.47049,0.11926 c -1.90877,0.0656 -3.70161,0.30199 -3.9841,0.52533 -0.28249,0.22334 -1.56355,0.55802 -2.84679,0.74373 -1.93133,0.2795 -2.33316,0.20558 -2.33316,-0.42924 0,-0.4524 -0.4244,-0.76688 -1.03494,-0.76688 -0.71814,0 -0.94839,0.22553 -0.7522,0.73679 0.17181,0.44772 9.8e-4,0.73679 -0.43485,0.73679 -0.39467,0 -1.32014,0.67627 -2.0566,1.50281 -0.92428,1.03735 -1.6425,1.42346 -2.31884,1.2466 -0.53891,-0.14093 -1.36655,0.0937 -1.83923,0.52152 -0.52769,0.47756 -1.19825,0.64206 -1.73728,0.42619 -1.72882,-0.69233 -5.2049,-0.66826 -5.91411,0.041 -0.9359,0.9359 -1.8317,0.33476 -1.00473,-0.67423 0.55313,-0.67489 0.49607,-0.74173 -0.42962,-0.50332 -0.91716,0.23622 -1.15703,-0.0284 -1.70361,-1.87958 -0.54613,-1.84967 -0.82205,-2.15453 -1.94994,-2.15453 -0.72259,0 -1.44102,0.33155 -1.59652,0.73679 -0.18459,0.48104 -0.94919,0.73679 -2.20278,0.73679 -1.10747,0 -2.17882,-0.31182 -2.53152,-0.73679 -1.12427,-1.35467 -2.35746,-0.85527 -3.33553,1.35078 -1.25661,2.83429 -2.16245,3.49923 -4.23682,3.11007 -0.92884,-0.17425 -1.79858,-0.58612 -1.93275,-0.91526 -0.18361,-0.45041 -0.36095,-0.43127 -0.71693,0.0774 -0.26014,0.3717 -1.54347,0.94762 -2.85185,1.27983 -1.85408,0.47077 -2.43985,0.86239 -2.65535,1.77523 -0.21487,0.91019 -0.70642,1.2411 -2.20552,1.48478 -1.06097,0.17245 -2.37947,0.10832 -2.93001,-0.14252 -0.69194,-0.31527 -1.56845,-0.21896 -2.8391,0.31195 -1.90508,0.79599 -2.27609,1.59398 -1.22825,2.64182 0.7257,0.7257 -0.22657,1.52825 -1.83787,1.54892 -0.54031,0.007 -1.42446,0.57678 -1.96477,1.26634 -1.73069,2.20876 -2.68119,2.90559 -4.30601,3.15683 l -1.5883,0.2456 -0.13998,5.03472 c -0.0781,2.81064 -0.34937,5.03472 -0.61399,5.03472 -0.2607,0 -0.47401,0.23682 -0.47401,0.52628 0,0.28945 -0.33155,0.85783 -0.73678,1.26307 -0.4556,0.45559 -0.73679,1.66069 -0.73679,3.15766 0,1.79858 -0.18495,2.42088 -0.71951,2.42088 -0.90502,0 -1.73645,1.51326 -1.73645,3.16045 0,1.13439 -0.18865,1.26028 -1.88864,1.26028 -1.26484,0 -2.18229,-0.32448 -2.77769,-0.98239 z"
       id="path4249"
       inkscape:connector-curvature="0" />
    <path
       style="fill:#916f6f"
       d="m 478.92834,567.91333 c -1.01482,-1.01482 -0.57407,-3.15036 0.94638,-4.58542 2.12577,-2.00639 2.01636,-3.85559 -0.28502,-4.81717 -1.15525,-0.4827 -1.95054,-1.2433 -2.31806,-2.21696 -0.3077,-0.81519 -0.73203,-1.48217 -0.94296,-1.48217 -0.53398,0 -0.48242,-1.84565 0.0609,-2.18146 0.51302,-0.31707 0.19535,-3.84634 -0.51619,-5.73474 -0.26633,-0.70682 -0.99783,-1.55999 -1.62556,-1.89594 -0.62773,-0.33595 -1.38772,-1.1516 -1.68887,-1.81254 -0.56045,-1.23006 -1.52574,-1.16005 -1.52574,0.11066 0,0.86932 -1.65625,0.93537 -2.35236,0.0938 -0.27933,-0.33769 -0.58269,-1.2771 -0.67413,-2.08756 -0.12309,-1.09092 -0.45326,-1.51434 -1.27145,-1.63054 -0.60785,-0.0863 -1.10518,-0.42116 -1.10518,-0.74406 0,-0.32291 -0.44207,-1.41192 -0.98238,-2.42002 -0.54032,-1.00811 -0.98239,-2.19036 -0.98239,-2.62724 0,-0.60363 -0.35467,-0.74226 -1.4774,-0.57748 -1.35301,0.19858 -1.51888,0.0628 -1.9701,-1.61292 -0.49735,-1.847 -1.38438,-2.58182 -3.18359,-2.63727 -0.83544,-0.0257 -1.00473,-0.41985 -1.13174,-2.63465 -0.0981,-1.71096 -0.393,-2.69786 -0.85959,-2.87691 -0.39063,-0.14989 -0.71023,-0.87774 -0.71023,-1.61743 0,-1.38218 -0.97355,-2.53493 -2.70156,-3.19886 -0.62347,-0.23954 -0.75806,-0.46123 -0.36839,-0.60678 0.35866,-0.13397 0.61399,-1.09588 0.61399,-2.31315 0,-2.27516 -0.84442,-3.37288 -3.88436,-5.04963 l -1.67399,-0.92333 -0.0961,-8.08769 c -0.0948,-7.98062 0.16791,-9.80687 1.41098,-9.80687 0.34864,0 1.14242,-0.5413 1.76395,-1.2029 0.88062,-0.93738 1.05166,-1.50659 0.77488,-2.57876 -0.91564,-3.54696 0.13818,-11.21396 1.67161,-12.16167 0.28532,-0.17634 3.07785,-0.37073 6.20563,-0.43199 4.2607,-0.0835 5.77687,0.0494 6.0457,0.5298 0.19735,0.35265 1.1607,0.67133 2.14076,0.70817 1.42543,0.0536 2.03234,-0.23059 3.03351,-1.42041 1.26067,-1.49822 4.60824,-2.53266 5.80414,-1.79356 1.17715,0.72752 6.98488,0.15123 8.34251,-0.82781 2.00746,-1.44765 4.82137,-1.27519 6.37987,0.39102 1.07827,1.15279 1.29766,1.92037 1.49679,5.23668 0.26069,4.34166 1.01198,5.49329 3.07258,4.70985 1.38141,-0.52522 1.71885,-0.22792 1.71885,1.51437 0,0.88867 0.648,2.04544 1.89483,3.38255 1.98268,2.12623 3.27305,5.31158 2.78043,6.86368 -0.24013,0.75657 0.12254,1.01637 2.1409,1.53366 2.33788,0.59918 2.41165,0.6709 1.94594,1.8918 -0.27518,0.72139 -0.34053,2.70432 -0.15143,4.59516 0.31938,3.19363 0.38224,3.32084 1.57787,3.19275 1.56311,-0.16747 2.80674,1.82478 3.17421,5.08497 0.29028,2.57531 -0.22657,3.86868 -1.54599,3.86868 -1.42028,0 -2.06135,-2.94844 -1.05138,-4.83559 0.33475,-0.62549 0.15026,-1.13027 -0.71883,-1.96675 l -1.16916,-1.12528 -0.30717,1.22385 c -0.16895,0.67312 -0.23229,2.67834 -0.14076,4.45603 l 0.16641,3.23218 -25.35109,-0.001 -25.35109,-10e-4 0.23871,1.24871 c 0.21851,1.14304 0.30963,1.18451 1.07693,0.49012 0.46102,-0.41722 0.97136,-0.62545 1.13408,-0.46273 0.16272,0.16272 0.55459,0.13594 0.87083,-0.0595 0.31624,-0.19544 5.56264,-0.336 11.65865,-0.31235 8.45409,0.0328 11.18052,0.19284 11.49191,0.67457 0.32438,0.50182 0.50606,0.48021 0.88445,-0.10523 0.40057,-0.61977 0.64071,-0.6348 1.51206,-0.0946 0.75261,0.46658 1.21148,0.49644 1.67808,0.1092 0.41598,-0.34523 3.81986,-0.51354 9.66256,-0.47777 9.00912,0.0552 9.02202,0.0568 10.37112,1.33348 0.74293,0.70304 1.35078,1.68902 1.35078,2.19107 0,0.50205 0.55259,1.4654 1.22798,2.14079 0.67539,0.67539 1.22798,1.53645 1.22798,1.91346 0,0.37701 0.22104,0.82208 0.49119,0.98904 0.27016,0.16697 0.4912,0.83008 0.4912,1.47358 0,0.6435 -0.22104,1.30661 -0.4912,1.47358 -0.70547,0.436 -0.57666,2.79326 0.20927,3.82957 0.36806,0.48532 0.57441,1.25895 0.45854,1.71917 -0.13016,0.51702 0.21814,1.05145 0.91154,1.39863 4.1785,2.09212 5.29735,2.81423 5.29735,3.41899 0,0.37701 -0.20567,0.68546 -0.45703,0.68546 -0.25137,0 -0.52767,0.49734 -0.61399,1.10519 -0.11098,0.78141 -0.58865,1.19058 -1.63054,1.39668 -3.10525,0.61428 -3.68394,0.99543 -3.68394,2.42641 0,0.75645 0.22621,1.45076 0.5027,1.54293 0.833,0.27766 -0.0208,3.24049 -1.00824,3.49871 -0.49024,0.1282 -1.91654,0.11754 -3.16957,-0.0237 -3.08781,-0.34804 -4.43166,0.48542 -5.87861,3.64598 -0.93745,2.04768 -1.44456,2.6199 -2.33052,2.62982 -1.3905,0.0155 -2.85153,2.85987 -2.85153,5.55133 0,1.66751 -0.10886,1.80385 -1.44013,1.80385 -1.02897,0 -1.73015,0.4073 -2.45596,1.42661 -0.55871,0.78463 -1.01584,1.66877 -1.01584,1.96477 0,0.29599 -0.4566,0.53816 -1.01467,0.53816 -0.55807,0 -1.45439,0.23533 -1.99182,0.52295 -1.35641,0.72593 -7.11502,0.94768 -7.76373,0.29896 z m -26.22485,-53.47158 c -0.1568,-0.39184 -0.27319,-0.27545 -0.29676,0.29676 -0.0213,0.5178 0.0948,0.80791 0.25798,0.64469 0.16322,-0.16322 0.18067,-0.58687 0.0388,-0.94145 z m 0.003,-6.6618 c -0.12354,-0.47277 -0.22463,-0.086 -0.22463,0.85959 0,0.94554 0.10109,1.33236 0.22463,0.85958 0.12355,-0.47277 0.12355,-1.2464 0,-1.71917 z m 13.4148,-29.86892 c 0,-0.42118 -0.22464,-0.62694 -0.4992,-0.45725 -0.27456,0.16969 -0.37204,0.51429 -0.21661,0.76578 0.42107,0.6813 0.71581,0.55426 0.71581,-0.30853 z"
       id="path4251"
       inkscape:connector-curvature="0" />
    <path
       style="fill:#916f6f"
       d="m 376.72433,573.61366 c 0,-0.25406 0.5526,-0.75766 1.22798,-1.11912 1.28927,-0.69 1.55506,-1.9094 0.74579,-3.42154 -0.36444,-0.68096 -0.28984,-0.97481 0.30548,-1.20325 1.90579,-0.73132 -1.04265,-5.68802 -3.38443,-5.68965 -0.69122,-4.8e-4 -0.85959,-0.43355 -0.85959,-2.21097 0,-1.29996 -0.22589,-2.21036 -0.54845,-2.21036 -0.34355,0 -0.43642,-0.50466 -0.24857,-1.35078 0.16493,-0.74293 0.65256,-3.22959 1.08361,-5.52591 0.58442,-3.1133 1.07764,-4.44401 1.93936,-5.23234 0.7207,-0.65932 1.10097,-1.49119 1.01041,-2.21036 -0.17972,-1.42723 -1.30436,-3.85473 -1.78587,-3.85473 -0.73386,0 -1.99953,-8.82024 -1.38093,-9.62344 0.53413,-0.69352 0.16221,-1.0343 -2.3338,-2.1384 -1.80804,-0.79978 -2.09405,-1.15073 -2.39642,-2.94042 -0.2207,-1.30633 -0.13905,-2.27841 0.22858,-2.72139 0.36979,-0.44556 0.45389,-1.47635 0.23794,-2.91639 -0.30981,-2.06597 -1.09948,-3.25958 -3.37306,-5.09853 -0.93132,-0.75327 -1.03814,-3.22057 -0.16906,-3.90509 0.33769,-0.26598 1.2313,-0.63119 1.98579,-0.81157 0.75449,-0.18038 1.50094,-0.70819 1.65876,-1.17291 0.15782,-0.46473 1.30369,-1.75655 2.54636,-2.87072 1.94857,-1.74706 2.17041,-2.13301 1.61243,-2.80533 -0.35584,-0.42876 -1.11202,-0.92717 -1.68039,-1.10756 -1.76761,-0.56102 -2.68255,-2.15561 -2.53168,-4.41232 0.16436,-2.45868 0.94976,-3.85507 2.64823,-4.70844 0.68814,-0.34574 1.64659,-1.02222 2.12989,-1.50327 0.4833,-0.48105 1.58848,-0.87547 2.45596,-0.87648 0.86748,-0.001 2.31356,-0.45074 3.2135,-0.99941 0.89993,-0.54867 2.77874,-1.37673 4.17513,-1.84014 1.96549,-0.65227 2.57509,-1.09799 2.69923,-1.97359 0.10216,-0.72059 0.72604,-1.37416 1.71917,-1.80099 0.85736,-0.36848 2.36586,-1.01995 3.35223,-1.44773 0.98638,-0.42777 2.32431,-0.77776 2.97319,-0.77776 0.64888,0 2.10125,-0.67766 3.22749,-1.5059 1.97335,-1.45122 2.03719,-1.58264 1.75805,-3.61918 -0.18183,-1.3266 -0.0853,-2.2396 0.25942,-2.45263 0.302,-0.18664 0.54908,-0.88583 0.54908,-1.55375 0,-1.22815 0.18516,-1.36541 2.53218,-1.87701 0.84228,-0.1836 1.79316,-1.05716 2.68472,-2.46642 0.75929,-1.20018 1.88543,-2.41219 2.50254,-2.69336 0.61711,-0.28118 1.12202,-0.84303 1.12202,-1.24856 0,-0.84287 3.71949,-2.90987 4.43758,-2.46607 0.26089,0.16124 0.47435,0.85636 0.47435,1.54471 0,0.91068 0.20066,1.17454 0.73678,0.96881 0.45178,-0.17336 0.73679,3.9e-4 0.73679,0.44917 0,0.40255 0.49734,0.96091 1.10519,1.24082 0.60785,0.2799 1.68744,1.32508 2.39909,2.32263 1.25366,1.75731 1.38092,1.81043 4.0915,1.70788 2.44018,-0.0923 2.9458,0.0541 3.95757,1.14579 0.63798,0.68839 1.22821,1.7225 1.31161,2.29801 0.14736,1.01688 0.82903,1.31717 4.81797,2.12246 0.67539,0.13634 1.72531,0.34922 2.33316,0.47305 0.77865,0.15863 1.10518,0.57541 1.10518,1.41067 0,1.37372 1.36663,1.99954 3.3044,1.51319 2.00314,-0.50275 2.98281,2.36296 1.36193,3.98384 -0.93612,0.93611 -0.93612,1.8707 0,2.80681 0.40523,0.40524 0.73679,1.03993 0.73679,1.41043 0,0.3705 0.26524,0.93888 0.58943,1.26306 0.45844,0.45845 0.45844,0.58943 0,0.58943 -0.32419,0 -0.58943,0.55259 -0.58943,1.22798 0,0.76408 -0.27835,1.22798 -0.73679,1.22798 -0.40523,0 -0.73679,0.32419 -0.73679,0.72042 0,0.39623 -0.78293,1.50335 -1.73984,2.46026 l -1.73985,1.73984 1.24866,0.47474 c 0.70777,0.2691 1.24865,0.86299 1.24865,1.37104 0,0.49297 0.24029,1.1366 0.53399,1.4303 0.38453,0.38452 0.38453,0.62636 0,0.86401 -0.2937,0.18152 -0.53399,1.27312 -0.53399,2.42578 0,1.59142 0.29085,2.36899 1.2086,3.23118 1.10033,1.0337 1.14433,1.2272 0.4912,2.15969 -1.12298,1.60328 -0.90063,4.10545 0.48824,5.49432 0.66311,0.66311 1.53947,1.20566 1.94748,1.20566 1.16263,0 1.75878,1.64416 1.75878,4.85064 0,1.82097 0.23505,3.10258 0.61399,3.34784 0.36719,0.23765 -0.66937,0.53246 -2.57876,0.73344 -1.75601,0.18483 -3.67164,0.41876 -4.25695,0.51984 -1.41104,0.24367 -2.71997,1.36716 -2.4407,2.09492 0.19579,0.51023 -1.46477,1.44302 -4.23137,2.3769 -0.47278,0.15959 -0.85959,0.73917 -0.85959,1.28796 0,0.54879 -0.22104,0.9978 -0.49119,0.9978 -0.27016,0 -0.4912,0.33156 -0.4912,0.73679 0,0.40523 -0.31313,0.73679 -0.69585,0.73679 -0.38272,0 -0.78807,0.27629 -0.90077,0.61399 -0.32395,0.97064 -4.81429,-0.39055 -6.11609,-1.85401 -0.59489,-0.66877 -1.5343,-1.21594 -2.08757,-1.21594 -0.55327,0 -1.00595,-0.22104 -1.00595,-0.4912 0,-0.27015 -0.22103,-0.49119 -0.49119,-0.49119 -0.27015,0 -0.49119,0.55259 -0.49119,1.22798 0,1.4463 -0.32904,1.52699 -1.58645,0.38905 -1.10668,-1.00153 -2.5005,-0.38683 -2.73916,1.20802 -0.10517,0.70272 -0.64357,1.09805 -1.78785,1.31272 -0.91383,0.17143 -1.76351,0.68166 -1.92283,1.15465 -0.40869,1.21333 -1.44063,2.74743 -2.15595,3.20506 -0.3377,0.21604 -0.61399,1.26596 -0.61399,2.33316 0,1.84335 -0.0763,1.94036 -1.52613,1.94036 -1.26036,0 -1.46471,0.14969 -1.17342,0.85959 0.50893,1.24029 0.51394,1.54172 0.0774,4.66128 -0.36765,2.62756 -0.50002,2.84665 -1.94628,3.22141 -1.31005,0.33947 -1.61191,0.7061 -1.93768,2.35342 -0.30054,1.51973 -0.75152,2.14822 -2.03898,2.84156 -1.83983,0.99081 -2.53567,2.12197 -2.98525,4.85279 -0.48185,2.92684 -3.55082,4.93437 -5.74672,3.75916 -1.10688,-0.59238 -3.84426,-0.57086 -3.84426,0.0302 0,0.26168 -0.29131,0.36399 -0.64736,0.22736 -0.35605,-0.13663 -1.2402,0.21791 -1.96477,0.78786 -0.99024,0.77892 -1.32327,1.48486 -1.341,2.84259 -0.0347,2.65619 -1.4356,5.21971 -2.92811,5.35815 -0.67289,0.0624 -2.05232,0.25237 -3.0654,0.42213 -1.04154,0.17453 -1.84198,0.10792 -1.84198,-0.15328 z"
       id="path4253"
       inkscape:connector-curvature="0" />
    <path
       style="fill:#916f6f"
       d="m 301.04752,629.94351 c -0.34493,-0.21317 -0.86538,-1.12465 -1.15655,-2.02551 l -0.52942,-1.63791 -4.27064,-0.14152 -4.27064,-0.14152 -0.33437,-2.22974 c -0.19959,-1.33093 -0.1142,-2.71296 0.21182,-3.42851 0.46996,-1.03144 0.37986,-1.34339 -0.64544,-2.23488 -0.6554,-0.56986 -1.70127,-1.2902 -2.32415,-1.60073 -1.20832,-0.60242 -1.72138,-2.17311 -1.81625,-5.56024 -0.0499,-1.78153 -0.2665,-2.18272 -1.53169,-2.83697 -0.85916,-0.44429 -1.47358,-1.15428 -1.47358,-1.7028 0,-0.51743 -0.19555,-1.06164 -0.43456,-1.20935 -0.23901,-0.14772 -0.53228,-0.93439 -0.65172,-1.74817 -0.17111,-1.16586 -0.0343,-1.47958 0.64507,-1.47958 0.47423,0 1.19379,-0.33156 1.59902,-0.73679 0.40524,-0.40524 0.98291,-0.73679 1.28372,-0.73679 0.30081,0 1.51615,-0.71837 2.70075,-1.59638 1.73657,-1.28712 2.21331,-1.97699 2.46091,-3.56114 0.45162,-2.88941 1.70974,-5.52898 2.76714,-5.80549 0.5099,-0.13334 0.92709,-0.661 0.92709,-1.17258 0,-0.51157 0.2634,-1.19352 0.58532,-1.51544 0.32819,-0.3282 0.67734,-2.51008 0.7948,-4.96688 0.20135,-4.21127 0.15473,-4.45477 -1.1993,-6.26521 -1.5883,-2.12367 -2.8215,-3.25338 -4.57527,-4.19132 -0.66093,-0.35349 -1.7355,-1.13295 -2.38792,-1.73216 -0.65243,-0.59921 -1.60366,-1.22195 -2.11385,-1.38388 -0.51019,-0.16193 -0.92762,-0.50055 -0.92762,-0.75251 0,-0.25194 -0.33156,-0.45809 -0.73679,-0.45809 -0.40523,0 -0.73679,-0.18623 -0.73679,-0.41384 0,-0.22762 -0.77363,-0.83047 -1.71917,-1.33968 -0.94555,-0.50921 -1.71917,-1.0618 -1.71917,-1.22798 0,-0.16618 -0.82325,-0.72377 -1.82945,-1.23908 -1.00619,-0.51532 -2.38541,-1.43427 -3.06493,-2.04212 -0.67952,-0.60785 -1.40353,-1.10518 -1.6089,-1.10518 -0.57417,0 -2.01355,-1.56914 -3.19927,-3.48768 l -1.07086,-1.73268 1.0709,-2.17894 c 0.58899,-1.19842 1.57627,-2.58181 2.19395,-3.07419 0.61768,-0.49238 1.12306,-1.30594 1.12306,-1.80791 0,-1.05439 1.61087,-3.78148 3.56114,-6.02875 0.74293,-0.85606 1.35078,-1.85456 1.35078,-2.21889 0,-0.36432 0.27629,-0.95108 0.61399,-1.30392 0.33769,-0.35283 0.94554,-1.13776 1.35078,-1.74427 0.40523,-0.60652 1.01308,-1.39144 1.35078,-1.74428 0.33769,-0.35283 0.61399,-1.08096 0.61399,-1.61805 0,-0.5371 0.17519,-1.05022 0.38931,-1.14027 0.21413,-0.09 0.89526,-0.99262 1.51364,-2.0057 1.23742,-2.02726 1.76122,-2.17126 4.19652,-1.15373 1.48646,0.62108 2.07206,0.57377 6.00133,-0.4849 2.39478,-0.64522 4.66158,-1.06043 5.03734,-0.92269 0.37576,0.13774 1.22828,-0.10671 1.89448,-0.54322 0.8763,-0.57417 1.35977,-0.64517 1.7482,-0.25674 0.29531,0.29531 1.40677,0.53692 2.46993,0.53692 1.43092,0 2.2286,-0.31895 3.07105,-1.22798 0.62593,-0.67539 1.4947,-1.22798 1.93059,-1.22798 0.4359,0 1.27534,-0.26419 1.86543,-0.58708 0.59009,-0.3229 1.95703,-0.71475 3.03766,-0.87078 1.81111,-0.2615 1.95653,-0.39577 1.85948,-1.71685 -0.12047,-1.6398 0.58862,-2.7196 1.78593,-2.7196 0.50704,0 1.07688,-0.70793 1.48265,-1.84197 0.7981,-2.23045 1.24889,-2.56371 3.4678,-2.56371 2.11216,0 2.59614,0.30405 3.59826,2.26056 0.95842,1.8712 1.70629,2.06998 7.86733,2.0911 3.86049,0.0132 4.78325,-0.11697 4.58014,-0.64625 -0.25486,-0.66415 0.94043,-6.26563 1.63242,-7.65 0.20256,-0.40523 0.82227,-0.67048 1.37713,-0.58944 0.71631,0.10461 1.05529,-0.16043 1.16903,-0.91402 0.14477,-0.95927 1.14026,-1.6622 4.992,-3.52495 0.49625,-0.23999 2.56829,-0.38771 4.60452,-0.32825 l 3.70223,0.1081 0.65209,-1.55085 c 0.59795,-1.42211 0.84026,-1.55085 2.91894,-1.55085 1.68858,0 2.69704,-0.32813 3.95324,-1.28628 1.56075,-1.19044 1.68641,-1.21484 1.68641,-0.32747 0,0.52735 0.14611,1.10493 0.32468,1.28351 0.17858,0.17858 0.34449,1.01325 0.36869,1.85483 0.0335,1.16689 -0.30552,1.77901 -1.42836,2.57854 -0.8098,0.57663 -1.69407,0.99734 -1.96506,0.93491 -0.29605,-0.0682 -0.42439,0.8699 -0.32154,2.35035 0.0941,1.35511 -0.0443,2.73375 -0.30756,3.06364 -0.2633,0.32988 -0.36771,1.8768 -0.23202,3.43759 0.20264,2.33096 0.38916,2.79353 1.04435,2.58997 0.4387,-0.1363 1.11804,-0.0468 1.50963,0.19891 0.93275,0.58525 0.74061,4.52361 -0.24767,5.07668 -0.39046,0.21851 -0.70991,1.08593 -0.70991,1.9276 0,1.21007 0.53213,2.02729 2.54285,3.90513 1.39857,1.30615 2.83529,2.37482 3.19274,2.37482 0.39464,0 0.6499,0.57875 0.6499,1.47357 0,0.81047 -0.22104,1.47358 -0.4912,1.47358 -0.92277,0 -0.49731,2.39597 0.55653,3.13411 0.72765,0.50966 0.963,1.05785 0.77039,1.7944 -0.15254,0.5833 -0.15612,1.37643 -0.008,1.7625 0.22,0.5733 0.40736,0.58742 1.02233,0.0771 0.65505,-0.54365 0.71734,-0.4335 0.47904,0.84705 -0.54329,2.91953 -2.57653,9.82585 -2.9399,9.98595 -0.20438,0.0901 -0.37296,0.75316 -0.37462,1.47357 -0.001,0.72042 -0.33322,1.94297 -0.73679,2.71678 -1.10442,2.11765 -0.94612,4.98805 0.34124,6.18741 0.59125,0.55084 1.24699,1.00153 1.4572,1.00153 0.21021,0 1.15583,0.77362 2.10137,1.71917 1.05681,1.05681 1.44161,1.71917 0.99876,1.71917 -0.39625,0 -0.72043,0.33156 -0.72043,0.73679 0,0.40523 -0.20262,0.73679 -0.45026,0.73679 -0.24764,0 -0.48051,0.9394 -0.51747,2.08757 -0.037,1.14816 -0.11065,2.70565 -0.16373,3.46108 -0.0748,1.06475 0.23474,1.56165 1.37705,2.21037 1.87968,1.06747 2.19362,1.51678 2.20285,3.15273 0.005,0.8909 -0.3593,1.52318 -1.09766,1.90501 -1.45745,0.75369 -3.25729,2.97288 -2.98551,3.68112 0.14543,0.37898 -1.01523,0.64015 -3.57484,0.80442 -2.89813,0.18599 -3.94303,0.45224 -4.43951,1.13122 -0.4904,0.67066 -0.51218,1.0532 -0.089,1.56308 0.77543,0.93434 0.009,1.56143 -2.05852,1.68508 -1.81548,0.10855 -3.43033,1.13924 -3.43033,2.18942 0,0.91328 -2.03629,2.22022 -2.66809,1.71245 -0.28856,-0.23192 -1.43394,-0.57152 -2.54528,-0.75467 -1.51466,-0.24961 -2.21309,-0.14052 -2.78927,0.43566 -0.42276,0.42276 -1.21527,0.76865 -1.76113,0.76865 -0.9635,0 -3.03872,2.30021 -3.65597,4.05234 -0.16655,0.47277 -0.53079,0.85958 -0.80943,0.85958 -0.27863,0 -0.51359,0.2763 -0.52213,0.61399 -0.009,0.3377 -0.53195,1.20025 -1.16315,1.91679 -0.97692,1.10902 -1.69497,1.35408 -4.82754,1.64763 -4.26557,0.39972 -4.39786,0.46173 -5.47658,2.56717 -0.4475,0.87344 -1.48133,1.93334 -2.2974,2.35534 -1.29853,0.6715 -1.46611,0.99445 -1.34246,2.58708 l 0.14129,1.81979 -2.37701,-0.0703 c -2.19331,-0.0649 -2.41438,0.0369 -2.86062,1.31697 -0.36397,1.04408 -1.04309,1.57791 -2.74521,2.15788 -1.24388,0.42384 -2.84113,0.77061 -3.54944,0.77061 -1.55456,0 -2.4667,0.81735 -2.4667,2.21036 0,1.76414 -0.91281,2.20258 -3.92929,1.88729 -1.77617,-0.18565 -3.18449,-0.0758 -3.89358,0.3037 -0.97036,0.51932 -1.07724,0.86949 -0.84476,2.76774 0.18548,1.51456 0.0235,2.5959 -0.53436,3.56798 -0.87757,1.52907 -3.10464,2.6245 -4.09341,2.0134 z m 0.30878,-64.17906 c -0.49147,-1.28075 -0.84364,-0.37325 -0.44481,1.14621 0.27261,1.03859 0.41887,1.17535 0.55664,0.52047 0.10278,-0.48856 0.0525,-1.23857 -0.11183,-1.66668 z m 0.0718,-5.1756 c -0.11749,-0.611 -0.21808,-0.22676 -0.22353,0.85386 -0.005,1.08062 0.0907,1.58053 0.21362,1.11091 0.12294,-0.46962 0.1274,-1.35377 0.01,-1.96477 z"
       id="path4255"
       inkscape:connector-curvature="0" />
    <path
       style="fill:#916f6f"
       d="m 462.68794,629.52485 c -0.79809,-0.22157 -1.01887,-0.46573 -0.63544,-0.7027 0.32317,-0.19974 0.45257,-0.71499 0.28755,-1.14502 -0.17809,-0.4641 0.0342,-0.96889 0.52232,-1.24206 0.59298,-0.33185 0.7854,-0.99784 0.68988,-2.38777 -0.0729,-1.06016 -0.35351,-1.88598 -0.62367,-1.83516 -0.27015,0.0508 -1.19858,-0.28405 -2.06317,-0.74417 -1.72705,-0.91911 -4.63371,-1.09882 -5.99438,-0.37061 -0.47887,0.25628 -1.35687,0.33883 -1.95111,0.18343 -1.03624,-0.27098 -1.07794,-0.50598 -1.01963,-5.74629 0.073,-6.56057 -0.11352,-7.18046 -2.16365,-7.19044 -2.52532,-0.0123 -2.92508,-0.53073 -2.54427,-3.2995 0.24915,-1.81158 0.11998,-2.94069 -0.49858,-4.35814 -0.45917,-1.0522 -0.80014,-2.63146 -0.75771,-3.50947 0.0424,-0.87801 -0.12874,-1.59637 -0.38036,-1.59637 -0.25163,0 -0.42433,-0.8829 -0.38378,-1.96199 0.0405,-1.0791 0.2395,-1.96325 0.44211,-1.96477 0.20262,-10e-4 0.3684,-0.22803 0.3684,-0.50333 0,-0.28529 -0.51513,-0.37127 -1.19782,-0.19992 -1.49399,0.37497 -3.68404,-1.10774 -3.68126,-2.49228 0.001,-0.54031 0.31786,-1.53498 0.70394,-2.21037 1.06134,-1.85662 0.91298,-4.21831 -0.33821,-5.38398 -1.24391,-1.15888 -1.97057,-1.2413 -3.41657,-0.38753 -0.83192,0.49119 -1.08437,0.49119 -1.26225,0 -0.15284,-0.42204 -1.47645,-0.61634 -4.23375,-0.62151 -4.44644,-0.008 -4.74657,-0.12185 -5.62961,-2.12913 -0.33871,-0.76991 -1.05258,-1.51407 -1.58638,-1.65366 -0.5338,-0.13959 -0.97055,-0.52532 -0.97055,-0.85717 0,-1.49763 -1.76001,-2.23496 -5.03295,-2.10849 -1.7775,0.0687 -3.39131,-0.0338 -3.58625,-0.22774 -0.19494,-0.19393 -0.40731,-2.21449 -0.47194,-4.49011 -0.0646,-2.27563 -0.26898,-4.38258 -0.4541,-4.68211 -0.18512,-0.29953 -1.08715,-0.54461 -2.00451,-0.54461 -1.53866,0 -1.69464,-0.14275 -2.01252,-1.84197 -0.38693,-2.06832 -1.35482,-3.03122 -3.07014,-3.05433 -1.07189,-0.0144 -1.13396,-0.1553 -0.81854,-1.85759 0.18772,-1.01308 0.54092,-1.91466 0.78488,-2.00351 1.78296,-0.64932 2.5831,-2.02032 2.79644,-4.79158 0.18407,-2.391 0.49718,-3.21061 1.7669,-4.62513 2.07211,-2.30841 2.77007,-3.64534 2.77007,-5.306 0,-1.09557 0.38995,-1.60766 1.84197,-2.4189 2.74979,-1.53628 5.84651,-1.8341 9.45598,-0.9094 3.07554,0.78792 5.08348,0.58093 7.36736,-0.75947 0.40523,-0.23783 1.1996,-0.63434 1.76526,-0.88112 0.56567,-0.24679 1.31085,-1.1304 1.65597,-1.9636 0.52159,-1.25922 0.90083,-1.5149 2.24701,-1.5149 1.31204,0 1.81553,-0.31715 2.65191,-1.67043 1.26861,-2.05266 2.02127,-2.37004 3.99164,-1.68316 1.11551,0.38887 2.03811,0.38322 3.38637,-0.0207 2.53748,-0.76025 2.47596,-0.79527 2.47596,1.40955 0,2.51662 1.32461,3.92954 3.68394,3.92954 1.70669,0 1.71917,0.0158 1.71917,2.18138 0,1.19976 -0.22163,2.31835 -0.49252,2.48577 -0.58195,0.35966 -0.0586,1.46441 1.45389,3.06913 0.76366,0.81023 1.60025,1.10518 3.13466,1.10518 2.55248,0 3.27186,0.64556 3.27186,2.9361 0,1.80567 1.11675,3.9406 2.06127,3.9406 0.29259,0 0.77739,-0.31788 1.07733,-0.70639 0.6748,-0.87407 3.2469,-0.46369 3.2469,0.51805 0,0.37374 0.22103,0.67953 0.49119,0.67953 0.27985,0 0.49119,1.45353 0.49119,3.3782 0,2.40362 0.21256,3.55461 0.73679,3.98968 0.40523,0.33632 0.7406,0.86071 0.74528,1.16533 0.005,0.30462 0.55725,1.07438 1.22798,1.71058 1.35624,1.28646 1.61795,2.29402 0.4827,1.85839 -0.44431,-0.1705 -0.73679,-0.003 -0.73679,0.42322 0,0.42572 0.29248,0.59372 0.73679,0.42323 0.46655,-0.17904 0.73679,0.007 0.73679,0.50661 0,0.43413 -0.35892,0.78934 -0.79761,0.78934 -0.66482,0 -0.76095,0.44209 -0.57742,2.65527 0.17987,2.16905 0.0561,2.77354 -0.67596,3.30118 -1.69103,1.21882 -0.88899,1.47019 3.64736,1.14311 4.44822,-0.32072 4.55384,-0.30331 5.03473,0.82995 0.30664,0.72263 0.97991,1.21413 1.79195,1.30814 1.90886,0.221 2.1488,1.85303 0.50938,3.4647 -1.73813,1.70872 -2.68785,5.54317 -1.71643,6.93007 0.50659,0.72326 0.55218,1.23207 0.17374,1.93919 -0.62495,1.16774 -0.67246,3.32269 -0.0813,3.68804 0.52899,0.32694 0.17744,4.44088 -0.54073,6.32787 -0.44188,1.16102 -0.35239,1.61255 0.56569,2.85432 1.0344,1.39911 1.04882,1.53891 0.27963,2.71282 -0.44603,0.68073 -0.69059,1.5514 -0.54346,1.93481 0.14713,0.3834 0.0534,0.6971 -0.20827,0.6971 -0.26168,0 -0.47578,0.77363 -0.47578,1.71918 0,0.94554 0.22104,1.71917 0.49119,1.71917 0.27016,0 0.49119,0.55259 0.49119,1.22798 0,1.02013 -0.23493,1.22798 -1.38795,1.22798 -1.77222,0 -4.0002,2.17621 -3.12451,3.0519 0.81191,0.81191 0.72803,2.19043 -0.15386,2.52885 -0.40524,0.1555 -0.73679,0.68949 -0.73679,1.18665 0,0.49715 -0.32453,1.33298 -0.72117,1.85738 -0.39664,0.52441 -0.72819,1.42984 -0.73679,2.01207 -0.0146,0.98904 -0.20122,1.04216 -2.83997,0.80826 -2.33875,-0.2073 -3.01438,-0.0838 -3.92954,0.71819 -1.19984,1.05148 -1.53846,3.81976 -0.5092,4.16284 0.36685,0.12228 0.0836,0.6442 -0.73679,1.3575 -0.73303,0.63735 -1.33277,1.45052 -1.33277,1.80704 0,0.35651 -0.424,0.6482 -0.94221,0.6482 -0.51822,0 -1.23659,0.0881 -1.59638,0.19578 -0.35979,0.10768 -1.20452,0.043 -1.87719,-0.14377 z m 9.3277,-59.48627 c 0,-1.08522 -0.77776,-1.71086 -1.22574,-0.98601 -0.43278,0.70026 0.21224,2.53679 0.76991,2.19213 0.25071,-0.15494 0.45583,-0.6977 0.45583,-1.20612 z"
       id="path4257"
       inkscape:connector-curvature="0" />
    <path
       style="fill:#916f6f"
       d="m 522.67758,616.27185 c -1.28201,-0.60716 -1.78347,-0.63834 -2.55154,-0.15867 -1.2758,0.79675 -2.88291,-0.16063 -3.24671,-1.93413 -0.14673,-0.71532 -0.78542,-1.53165 -1.42709,-1.82402 -0.63883,-0.29107 -1.66616,-1.30818 -2.28296,-2.26025 -1.15399,-1.78125 -2.21735,-2.17002 -3.21278,-1.17459 -0.39829,0.39829 -0.75875,0.41528 -1.20342,0.0567 -1.0271,-0.82823 -3.76142,-1.23799 -6.01049,-0.90072 -1.53451,0.23011 -2.26481,0.63603 -2.73926,1.52256 -0.35581,0.66483 -1.05858,1.20879 -1.56172,1.20879 -0.50314,0 -1.03547,0.31446 -1.18296,0.69881 -0.14749,0.38434 -0.58524,0.82048 -0.97279,0.9692 -0.80018,0.30706 -3.14895,-0.62953 -3.14895,-1.25567 0,-0.22679 -0.66311,-0.41234 -1.47358,-0.41234 -1.47131,0 -1.47357,-0.004 -1.47357,-2.90698 0,-3.3522 -0.31827,-4.46091 -1.28054,-4.46091 -1.12741,0 -0.78792,-2.38701 0.54375,-3.82316 1.29529,-1.39691 1.60804,-3.45937 0.66724,-4.40018 -0.41159,-0.41159 -0.42337,-1.31963 -0.0443,-3.41379 0.80603,-4.45259 0.43248,-9.32722 -0.81663,-10.65684 -1.31257,-1.39717 -1.30429,-2.13516 0.0362,-3.22058 0.85661,-0.69365 1.08816,-1.44535 1.15905,-3.76268 0.12694,-4.14985 0.11833,-4.12311 1.33162,-4.13137 1.60511,-0.0109 2.85307,-1.23171 3.63269,-3.55362 0.18813,-0.56029 0.79534,-0.85958 1.74394,-0.85958 1.35088,0 1.43283,-0.1024 1.14194,-1.42682 -0.17977,-0.81848 -0.0917,-1.56382 0.20657,-1.74816 0.28597,-0.17674 0.51995,-0.86783 0.51995,-1.53576 0,-0.72446 0.34679,-1.32524 0.85958,-1.48912 1.84717,-0.59035 3.06996,-1.36075 3.06996,-1.93418 0,-0.80297 1.75082,-4.68216 2.00787,-4.44875 0.11137,0.10113 1.91552,0.31378 4.00923,0.47256 3.47101,0.26323 4.67209,-0.068 3.30666,-0.91187 -0.30867,-0.19077 -0.12067,-0.84191 0.49119,-1.70119 0.5452,-0.76566 0.99466,-1.91059 0.9988,-2.54427 0.004,-0.63369 0.19193,-1.44296 0.41731,-1.79839 0.64759,-1.02124 2.98376,-2.05454 4.66603,-2.06381 0.99417,-0.005 1.95034,-0.44084 2.69697,-1.22798 0.63621,-0.67072 1.58339,-1.2195 2.10485,-1.2195 0.52146,0 1.43767,-0.29846 2.03601,-0.66324 0.59835,-0.36478 2.52464,-0.69542 4.28065,-0.73474 1.75602,-0.0393 4.02928,-0.20366 5.05171,-0.36519 1.14299,-0.18057 2.13305,-0.0662 2.57062,0.29694 0.57891,0.48046 0.79945,0.37452 1.18231,-0.56795 0.25887,-0.63721 1.03616,-1.6791 1.72732,-2.3153 0.69116,-0.63621 1.25666,-1.35458 1.25666,-1.59638 0,-0.2418 0.30759,-0.43964 0.68354,-0.43964 0.37595,0 0.81764,-0.53433 0.98156,-1.18741 0.16391,-0.65307 1.06269,-1.65999 1.99728,-2.2376 0.93459,-0.57761 2.20592,-1.6464 2.82518,-2.37509 1.83842,-2.1633 9.18432,-3.39813 11.8209,-1.98707 0.60561,0.32411 2.10791,0.40364 3.86639,0.20469 1.8872,-0.21351 2.87596,-0.14812 2.87596,0.19021 0,0.28357 0.44207,0.0735 0.98238,-0.4668 1.09454,-1.09454 2.94715,-1.32214 2.94715,-0.36207 0,0.34117 -0.49733,0.8385 -1.10518,1.10518 -1.3524,0.59333 -1.80667,3.04231 -0.64688,3.48737 0.42332,0.16244 0.76968,0.51388 0.76968,0.78097 0,0.26708 0.42647,1.08453 0.94771,1.81654 0.64316,0.90324 0.80342,1.55897 0.49871,2.04059 -0.67359,1.06467 -0.54925,3.48185 0.25881,5.03104 0.89714,1.71997 0.48386,4.10126 -0.76864,4.42879 -0.81597,0.21338 -0.91631,0.71634 -0.86686,4.34504 0.0539,3.95304 -4.9e-4,4.16411 -1.48048,5.74844 -0.84502,0.9046 -1.5364,1.82077 -1.5364,2.03593 0,0.21515 -0.66311,0.62235 -1.47358,0.90488 -0.81047,0.28253 -1.47358,0.74623 -1.47358,1.03044 0,0.28421 -0.27629,0.51738 -0.61399,0.51815 -0.33769,7.9e-4 -1.05606,0.66518 -1.59637,1.47644 -0.54032,0.81126 -1.31394,1.58392 -1.71918,1.71702 -0.40523,0.1331 -1.23412,0.97438 -1.84197,1.86951 -1.37764,2.02874 -1.43908,4.88782 -0.15645,7.28092 0.73478,1.37095 0.81786,1.91052 0.36839,2.39272 -0.46065,0.49419 -0.34124,0.56472 0.579,0.34199 2.71511,-0.65714 4.78904,4.00461 2.28845,5.14395 -1.53797,0.70075 -1.87321,1.75158 -1.95596,6.13115 -0.0365,1.93307 -0.32995,3.83222 -0.65206,4.22033 -0.3221,0.38812 -0.43792,0.85338 -0.25737,1.03394 0.18055,0.18055 -0.0767,0.6244 -0.57167,0.98633 -0.7014,0.51288 -0.83549,1.05528 -0.60778,2.4585 0.24114,1.486 0.0868,1.99212 -0.88376,2.89801 -0.79678,0.74368 -1.34931,2.04783 -1.71365,4.04472 -1.09193,5.98489 -0.92702,5.64872 -2.771,5.64872 -0.9286,0 -1.75175,0.27438 -1.84199,0.61399 -0.98336,3.70079 -0.78278,3.53465 -4.72908,3.91695 -3.24886,0.31474 -3.81573,0.52382 -4.91096,1.81131 -0.68099,0.80052 -1.87596,1.69799 -2.65549,1.99437 -2.14498,0.81552 -12.98451,0.5136 -14.94813,-0.41635 z m 29.46432,-35.88534 c 0.0887,-1.74607 -0.0684,-2.73662 -0.4544,-2.86528 -0.42042,-0.14014 -0.5899,0.76063 -0.5899,3.13529 0,3.95531 0.84079,3.73793 1.0443,-0.27001 z"
       id="path4259"
       inkscape:connector-curvature="0" />
    <path
       style="fill:#916f6f"
       d="m 370.47169,686.49501 c -0.40268,-0.6539 -0.43566,-1.0847 -0.0989,-1.2928 0.76573,-0.47325 -0.31439,-1.53273 -1.88689,-1.85085 -0.88556,-0.17914 -1.65741,-0.86531 -2.2767,-2.02396 -1.05866,-1.98067 -2.86561,-2.38455 -3.69927,-0.82684 -0.52492,0.98082 -3.75659,2.85646 -6.09468,3.53731 -0.89545,0.26074 -2.73482,0.13074 -5.11529,-0.36155 -2.2693,-0.4693 -4.62804,-0.64786 -6.05599,-0.45843 -2.60814,0.34598 -3.43358,-0.23592 -2.15226,-1.51724 1.40446,-1.40445 -0.25102,-5.56454 -2.21436,-5.56454 -0.28724,0 -0.77404,-0.55259 -1.08177,-1.22798 -0.30772,-0.67539 -0.74506,-1.22798 -0.97185,-1.22798 -0.22679,0 -0.41235,-0.66311 -0.41235,-1.47357 0,-0.81047 0.22104,-1.47358 0.49119,-1.47358 0.27624,0 0.4912,-1.3742 0.4912,-3.1402 0,-2.33817 0.18818,-3.21241 0.73678,-3.42293 0.95755,-0.36744 0.94311,-2.25638 -0.0279,-3.64262 -0.7238,-1.03338 -0.70413,-1.09208 0.3684,-1.0992 1.50888,-0.01 2.08717,-0.44452 2.93175,-2.20284 0.91638,-1.90778 0.61377,-3.62967 -0.73133,-4.16139 -2.64512,-1.04564 -7.80005,-2.10977 -11.62325,-2.39939 -3.41373,-0.2586 -4.19974,-0.47033 -4.33232,-1.16705 -0.10855,-0.57044 0.40187,-1.12 1.54773,-1.66642 1.11899,-0.53362 1.79185,-1.24505 1.94747,-2.05915 0.35743,-1.86977 -1.2925,-3.00038 -4.40779,-3.02043 -3.50993,-0.0226 -4.10438,-0.32077 -3.79332,-1.90274 0.22058,-1.12185 0.0268,-1.39755 -1.37195,-1.95208 -2.68233,-1.06339 -3.0954,-1.37265 -3.25438,-2.43652 -0.19209,-1.28543 -2.36794,-2.07527 -5.71693,-2.07527 -2.4518,0 -2.54897,-0.0536 -3.16003,-1.74346 -0.53859,-1.48945 -0.51719,-1.91632 0.14692,-2.92988 0.42755,-0.65252 0.77737,-1.9578 0.77737,-2.9006 0,-1.88223 0.4692,-2.08972 5.36149,-2.37087 1.89266,-0.10877 2.26785,-0.32379 2.94716,-1.68905 0.58087,-1.16742 1.42812,-1.80573 3.33871,-2.51535 1.40817,-0.52301 2.69514,-0.8161 2.85993,-0.6513 0.36933,0.36932 5.07919,0.55515 6.21333,0.24515 0.78693,-0.21509 0.88367,-0.60739 0.9188,-3.72589 0.0215,-1.90487 0.86472,-3.28679 3.60758,-5.91203 2.60231,-2.49072 4.49451,-3.33039 7.144,-3.17018 1.32728,0.0803 1.81522,-0.14019 2.2661,-1.02382 0.31603,-0.61935 1.32076,-1.6766 2.23274,-2.34944 1.03268,-0.76189 1.85027,-1.91199 2.16751,-3.04903 0.44013,-1.57751 0.72846,-1.8469 2.12104,-1.98171 0.88642,-0.0858 1.73316,-0.47263 1.88165,-0.85959 0.35755,-0.93175 1.63846,-0.90578 1.63846,0.0332 0,0.86993 0.55394,0.90764 3.19275,0.21733 3.35329,-0.87722 4.62256,-1.51602 4.92869,-2.48052 0.19855,-0.62558 0.75295,-0.92956 1.69533,-0.92956 2.21298,0 2.95423,-0.48311 2.95423,-1.92542 0,-0.83562 0.54714,-1.85333 1.47357,-2.74091 0.81046,-0.77647 1.47357,-1.14938 1.47357,-0.82868 0,0.36967 0.87007,0.58309 2.37712,0.58309 2.07064,0 2.45061,-0.1613 2.94715,-1.25109 0.31352,-0.68811 0.57004,-1.57225 0.57004,-1.96477 0,-0.39253 0.28749,-0.71368 0.63886,-0.71368 0.35137,0 1.24572,-0.2763 1.98744,-0.61399 1.18044,-0.53745 1.3122,-0.8138 1.05685,-2.21678 -0.2298,-1.26258 -0.10429,-1.67052 0.59132,-1.9219 1.72892,-0.62479 3.58461,-2.20427 3.58461,-3.05106 0,-0.61554 0.69841,-1.05033 2.45596,-1.52892 2.61175,-0.7112 2.79327,-0.9468 1.86934,-2.42624 -0.45469,-0.72808 -0.45469,-1.22886 0,-2.22681 0.32264,-0.70812 0.58662,-1.80286 0.58662,-2.43276 0,-1.49461 2.54026,-2.70482 3.68438,-1.75529 0.405,0.33611 0.73635,1.00104 0.73635,1.4776 0,0.57866 0.4686,0.93527 1.41067,1.07354 1.92881,0.28309 2.94908,-0.15352 3.6516,-1.56261 0.32686,-0.65563 1.13099,-1.31875 1.78695,-1.4736 1.28675,-0.30376 2.12074,-2.17819 2.0282,-4.55846 l -0.0529,-1.35923 0.99083,0.99083 c 1.21909,1.21909 3.22569,1.28664 3.89864,0.13125 0.39885,-0.68479 0.51944,-0.41011 0.59298,1.35078 0.0508,1.2157 0.0821,2.48666 0.0695,2.82435 -0.0139,0.37489 0.62541,0.61399 1.64179,0.61399 0.91552,0 1.67887,0.16578 1.69632,0.3684 0.0174,0.20261 0.13639,1.49477 0.26432,2.87146 0.17354,1.86748 0.0408,2.6623 -0.52291,3.1301 -1.01483,0.84223 -0.95165,1.59849 0.26251,3.14205 0.89318,1.13549 1.37157,1.29422 3.90055,1.29422 1.58538,0 3.01913,-0.22103 3.18609,-0.49119 0.37456,-0.60604 3.19275,-0.65661 3.19275,-0.0573 0,0.23865 0.43201,0.54688 0.96002,0.68496 0.55707,0.14567 1.08853,0.83977 1.26619,1.65366 0.65079,2.98128 1.2416,3.61279 3.38271,3.61572 1.10251,0.002 2.84852,0.23709 3.88004,0.52353 1.39014,0.38602 2.05746,0.36975 2.57876,-0.0629 0.56121,-0.46577 0.70328,-0.42231 0.70328,0.21513 0,0.59933 0.39865,0.76767 1.59638,0.67414 l 1.59637,-0.12467 0.0848,3.766 c 0.0867,3.85357 1.01901,6.30344 2.39868,6.30344 0.92382,0 1.4079,0.97144 0.79134,1.58801 -0.28602,0.28601 -0.40631,1.09564 -0.26732,1.79917 0.17252,0.87324 -0.0697,1.62333 -0.76339,2.36379 -0.55886,0.59656 -1.02309,1.4807 -1.03163,1.96477 -0.0161,0.91116 -2.09438,3.58272 -2.78527,3.58032 -0.21558,-7.4e-4 -1.34499,0.49658 -2.50981,1.10518 -1.50661,0.78718 -2.19771,1.49641 -2.39456,2.45733 -0.1522,0.74293 -0.47012,1.35078 -0.70651,1.35078 -0.23638,0 -0.42979,0.55259 -0.42979,1.22798 0,0.84058 -0.27118,1.22919 -0.85959,1.23181 -1.05364,0.005 -2.08756,2.09926 -2.08756,4.22906 0,2.78079 -0.35362,3.13499 -3.12978,3.13499 -1.5876,0 -3.21183,0.36357 -4.35038,0.9738 -0.9993,0.53559 -2.15646,0.8435 -2.57148,0.68424 -0.47065,-0.1806 -0.75459,-0.0141 -0.75459,0.44249 0,0.40263 0.44207,0.84765 0.98238,0.98895 0.63886,0.16706 0.98239,0.66999 0.98239,1.43825 0,0.64973 0.44207,1.65585 0.98238,2.23581 1.05111,1.12823 1.38564,4.71788 0.49119,5.27067 -0.27015,0.16697 -0.49119,0.65298 -0.49119,1.08002 0,1.2202 -1.53644,2.08008 -3.74715,2.09711 -2.54251,0.0196 -2.95512,0.89142 -3.41381,7.21327 -0.25966,3.57882 -0.17002,4.80919 0.43942,6.03083 0.68538,1.37388 0.68815,1.72019 0.0264,3.30389 -0.55301,1.32354 -0.61239,2.09333 -0.23576,3.05623 0.27689,0.70789 0.56072,2.23913 0.63073,3.40274 0.14873,2.47199 -0.4316,3.02329 -3.19413,3.03434 l -1.88078,0.008 0.28233,3.80674 c 0.15528,2.09371 0.33852,6.01336 0.4072,8.71035 0.11624,4.5643 0.0569,4.91671 -0.85751,5.09307 -0.54031,0.10421 -1.49541,0.70135 -2.12244,1.32699 -1.08218,1.07977 -5.85862,2.99838 -8.38021,3.36618 -0.6435,0.0939 -1.82637,0.87297 -2.62859,1.73134 -1.20625,1.29069 -1.76864,1.53483 -3.25073,1.41122 -1.54559,-0.12892 -1.81353,-0.33532 -1.94757,-1.50026 -0.142,-1.23413 -0.80423,-1.64752 -2.22944,-1.39171 -0.23105,0.0414 -0.67313,-0.12841 -0.98239,-0.37749 -0.30925,-0.24909 -1.48404,-0.60485 -2.61065,-0.79058 -1.87104,-0.30845 -2.17882,-0.20117 -3.55548,1.23937 -0.82891,0.86738 -2.007,1.65139 -2.61796,1.74224 -2.01054,0.29899 -3.55204,0.6091 -4.54919,0.91517 -0.67365,0.20677 -1.17219,-0.007 -1.58632,-0.67915 l 1e-5,0 z m 37.19776,-7.90294 c 0,-0.27015 -0.22104,-0.49119 -0.49119,-0.49119 -0.27016,0 -0.4912,0.22104 -0.4912,0.49119 0,0.27016 0.22104,0.4912 0.4912,0.4912 0.27015,0 0.49119,-0.22104 0.49119,-0.4912 z"
       id="path4261"
       inkscape:connector-curvature="0" />
  </g>
</svg>
